# https://github.com/mikedh/trimesh
v -0.03286300 -0.00001600 -0.14970800
v -0.03174500 -0.00850600 -0.14970800
v -0.00005800 -0.00001600 -0.15176300
v -0.03174500 0.00847500 -0.14970800
v -0.02846800 -0.01641900 -0.14970800
v -0.03890900 -0.00001600 -0.14562200
v -0.03758500 -0.01007100 -0.14562200
v -0.03758500 0.01004000 -0.14562200
v -0.02846800 0.01638700 -0.14970800
v -0.02325500 -0.02321300 -0.14970800
v -0.03370400 -0.01944100 -0.14562200
v -0.04009000 -0.01074200 -0.14000000
v -0.04150200 -0.00001600 -0.14000000
v -0.04009000 0.01071100 -0.14000000
v -0.03370400 0.01941000 -0.14562200
v -0.02325500 0.02318100 -0.14970800
v -0.01646000 -0.02842600 -0.14970800
v -0.02753000 -0.02748800 -0.14562200
v -0.03594900 -0.02073800 -0.14000000
v -0.04044700 -0.01083800 -0.01207800
v -0.04187100 -0.00001600 -0.01207800
v -0.04044700 0.01080600 -0.01207800
v -0.03594900 0.02070600 -0.14000000
v -0.02753000 0.02745600 -0.14562200
v -0.01646000 0.02839500 -0.14970800
v -0.00854800 -0.03170400 -0.14970800
v -0.01948300 -0.03366200 -0.14562200
v -0.02936300 -0.02932100 -0.14000000
v -0.03626900 -0.02092300 -0.01207800
v -0.03866600 -0.01036100 0.00251100
v -0.04002800 -0.00001600 0.00251100
v -0.03866600 0.01032900 0.00251100
v -0.03626900 0.02089100 -0.01207800
v -0.02936300 0.02929000 -0.14000000
v -0.01948300 0.03363000 -0.14562200
v -0.00854800 0.03167200 -0.14970800
v -0.00005800 -0.03282100 -0.14970800
v -0.01011300 -0.03754300 -0.14562200
v -0.02078000 -0.03590800 -0.14000000
v -0.02962400 -0.02958300 -0.01207800
v -0.03467300 -0.02000100 0.00251100
v -0.03193900 -0.00855800 0.02547000
v -0.03306400 -0.00001600 0.02547000
v -0.03193900 0.00852700 0.02547000
v -0.03467300 0.01997000 0.00251100
v -0.02962400 0.02955100 -0.01207800
v -0.02078000 0.03587600 -0.14000000
v -0.01011300 0.03751200 -0.14562200
v -0.00005800 0.03279000 -0.14970800
v 0.00843300 -0.03170400 -0.14970800
v -0.00005800 -0.03886700 -0.14562200
v -0.01078400 -0.04004800 -0.14000000
v -0.02096500 -0.03622800 -0.01207800
v -0.02832100 -0.02827900 0.00251100
v -0.02864200 -0.01651900 0.02547000
v -0.02753400 -0.00737800 0.03792900
v -0.02850400 -0.00001600 0.03792900
v -0.02753400 0.00734700 0.03792900
v -0.02864200 0.01648700 0.02547000
v -0.02832100 0.02824800 0.00251100
v -0.02096500 0.03619600 -0.01207800
v -0.01078400 0.04001600 -0.14000000
v -0.00005800 0.03883500 -0.14562200
v 0.00843300 0.03167200 -0.14970800
v 0.01634500 -0.02842600 -0.14970800
v 0.00999800 -0.03754300 -0.14562200
v -0.00005800 -0.04146000 -0.14000000
v -0.01088000 -0.04040500 -0.01207800
v -0.02004300 -0.03463100 0.00251100
v -0.02339600 -0.02335500 0.02547000
v -0.02469300 -0.01423900 0.03792900
v -0.02189100 -0.00586600 0.05776200
v -0.02266100 -0.00001600 0.05776200
v -0.02189100 0.00583500 0.05776200
v -0.02469300 0.01420700 0.03792900
v -0.02339600 0.02332300 0.02547000
v -0.02004300 0.03460000 0.00251100
v -0.01088000 0.04037300 -0.01207800
v -0.00005800 0.04142900 -0.14000000
v 0.00999800 0.03751200 -0.14562200
v 0.01634500 0.02839500 -0.14970800
v 0.02314000 -0.02321300 -0.14970800
v 0.01936800 -0.03366200 -0.14562200
v 0.01066900 -0.04004800 -0.14000000
v -0.00005800 -0.04183000 -0.01207800
v -0.01040300 -0.03862400 0.00251100
v -0.01656100 -0.02860000 0.02547000
v -0.02017200 -0.02013000 0.03792900
v -0.01963300 -0.01131800 0.05776200
v -0.01963300 0.01128600 0.05776200
v -0.02017200 0.02009800 0.03792900
v -0.01656100 0.02856800 0.02547000
v -0.01040300 0.03859300 0.00251100
v -0.00005800 0.04179800 -0.01207800
v 0.01066900 0.04001600 -0.14000000
v 0.01936800 0.03363000 -0.14562200
v 0.02314000 0.02318100 -0.14970800
v 0.02835300 -0.01641900 -0.14970800
v 0.02741400 -0.02748800 -0.14562200
v 0.02066500 -0.03590800 -0.14000000
v 0.01076500 -0.04040500 -0.01207800
v -0.00005800 -0.03998700 0.00251100
v -0.00860000 -0.03189700 0.02547000
v -0.01428100 -0.02465100 0.03792900
v -0.01604100 -0.01599900 0.05776200
v -0.01604100 0.01596700 0.05776200
v -0.01428100 0.02461900 0.03792900
v -0.00860000 0.03186600 0.02547000
v -0.00005800 0.03995500 0.00251100
v 0.01076500 0.04037300 -0.01207800
v 0.02066500 0.03587600 -0.14000000
v 0.02741400 0.02745600 -0.14562200
v 0.02835300 0.01638700 -0.14970800
v 0.03163000 -0.00850600 -0.14970800
v 0.03358800 -0.01944100 -0.14562200
v 0.02924800 -0.02932100 -0.14000000
v 0.02084900 -0.03622800 -0.01207800
v 0.01028800 -0.03862400 0.00251100
v -0.00005800 -0.03302200 0.02547000
v -0.00742000 -0.02749300 0.03792900
v -0.01135900 -0.01959100 0.05776200
v -0.01135900 0.01956000 0.05776200
v -0.00742000 0.02746100 0.03792900
v -0.00005800 0.03299000 0.02547000
v 0.01028800 0.03859300 0.00251100
v 0.02084900 0.03619600 -0.01207800
v 0.02924800 0.02929000 -0.14000000
v 0.03358800 0.01941000 -0.14562200
v 0.03163000 0.00847500 -0.14970800
v 0.03274800 -0.00001600 -0.14970800
v 0.03747000 -0.01007100 -0.14562200
v 0.03583400 -0.02073800 -0.14000000
v 0.02950900 -0.02958300 -0.01207800
v 0.01992800 -0.03463100 0.00251100
v 0.00848500 -0.03189700 0.02547000
v -0.00005800 -0.02846200 0.03792900
v -0.00590800 -0.02184900 0.05776200
v -0.00590800 0.02181800 0.05776200
v -0.00005800 0.02843000 0.03792900
v 0.00848500 0.03186600 0.02547000
v 0.01992800 0.03460000 0.00251100
v 0.02950900 0.02955100 -0.01207800
v 0.03583400 0.02070600 -0.14000000
v 0.03747000 0.01004000 -0.14562200
v 0.03879400 -0.00001600 -0.14562200
v 0.03997500 -0.01074200 -0.14000000
v 0.03615400 -0.02092300 -0.01207800
v 0.02820600 -0.02827900 0.00251100
v 0.01644500 -0.02860000 0.02547000
v 0.00730500 -0.02749300 0.03792900
v -0.00005800 -0.02262000 0.05776200
v -0.00005800 0.02258800 0.05776200
v 0.00730500 0.02746100 0.03792900
v 0.01644500 0.02856800 0.02547000
v 0.02820600 0.02824800 0.00251100
v 0.03615400 0.02089100 -0.01207800
v 0.03997500 0.01071100 -0.14000000
v 0.04138700 -0.00001600 -0.14000000
v 0.04033100 -0.01083800 -0.01207800
v 0.03455800 -0.02000100 0.00251100
v 0.02328100 -0.02335500 0.02547000
v 0.01416500 -0.02465100 0.03792900
v 0.00579300 -0.02184900 0.05776200
v 0.00579300 0.02181800 0.05776200
v 0.01416500 0.02461900 0.03792900
v 0.02328100 0.02332300 0.02547000
v 0.03455800 0.01997000 0.00251100
v 0.04033100 0.01080600 -0.01207800
v 0.04175600 -0.00001600 -0.01207800
v 0.03855100 -0.01036100 0.00251100
v 0.02852600 -0.01651900 0.02547000
v 0.02005700 -0.02013000 0.03792900
v 0.01124400 -0.01959100 0.05776200
v 0.01124400 0.01956000 0.05776200
v 0.02005700 0.02009800 0.03792900
v 0.02852600 0.01648700 0.02547000
v 0.03855100 0.01032900 0.00251100
v 0.03991300 -0.00001600 0.00251100
v 0.03182400 -0.00855800 0.02547000
v 0.02457700 -0.01423900 0.03792900
v 0.01592600 -0.01599900 0.05776200
v 0.01592600 0.01596700 0.05776200
v 0.02457700 0.01420700 0.03792900
v 0.03182400 0.00852700 0.02547000
v 0.03294800 -0.00001600 0.02547000
v 0.02741900 -0.00737800 0.03792900
v 0.01951800 -0.01131800 0.05776200
v 0.01951800 0.01128600 0.05776200
v 0.02741900 0.00734700 0.03792900
v 0.02838800 -0.00001600 0.03792900
v 0.02177600 -0.00586600 0.05776200
v 0.02177600 0.00583500 0.05776200
v 0.02254600 -0.00001600 0.05776200
vn 0.34190102 0.00000252 0.93973597
vn 0.33024430 0.08848630 0.93973873
vn 0.00000096 0.00000042 1.00000000
vn 0.33024481 -0.08848718 0.93973846
vn 0.29611863 0.17094470 0.93972957
vn 0.77112303 0.00001050 0.63668617
vn 0.74483530 0.19957729 0.63670188
vn 0.74483281 -0.19957719 0.63670482
vn 0.29609764 -0.17094530 0.93973608
vn 0.24176241 0.24177500 0.93973176
vn 0.66784079 0.38554604 0.63666548
vn 0.94393052 0.25293168 0.21218091
vn 0.97723246 0.00001104 0.21217142
vn 0.94392928 -0.25294361 0.21217219
vn 0.66783216 -0.38558835 0.63664891
vn 0.24176768 -0.24177023 0.93973163
vn 0.17093613 0.29609451 0.93973873
vn 0.54529666 0.54528174 0.63664698
vn 0.84630385 0.48863577 0.21214354
vn 0.96412762 0.25832476 -0.06104310
vn 0.99813529 0.00000078 -0.06104051
vn 0.96412848 -0.25832217 -0.06104043
vn 0.84630715 -0.48863865 0.21212374
vn 0.54527243 -0.54528056 0.63666875
vn 0.17096608 -0.29611411 0.93972710
vn 0.08850820 0.33028334 0.93972295
vn 0.38551847 0.66780848 0.63671606
vn 0.69104085 0.69099097 0.21211797
vn 0.86439704 0.49909222 -0.06103040
vn 0.94497646 0.25319803 -0.20714791
vn 0.97831340 0.00000076 -0.20713012
vn 0.94498032 -0.25318322 -0.20714839
vn 0.86439944 -0.49908997 -0.06101487
vn 0.69101795 -0.69099761 0.21217092
vn 0.38557540 -0.66779324 0.63669757
vn 0.08847929 -0.33025270 0.93973644
vn 0.00000277 0.34188528 0.93974170
vn 0.19958835 0.74485035 0.63668080
vn 0.48861396 0.84630420 0.21219238
vn 0.70580303 0.70577329 -0.06104217
vn 0.84723807 0.48916302 -0.20714053
vn 0.91629978 0.24550778 -0.31641846
vn 0.94862053 0.00000736 -0.31641601
vn 0.91629647 -0.24552458 -0.31641502
vn 0.84724374 -0.48915462 -0.20713718
vn 0.70580842 -0.70577021 -0.06101539
vn 0.48861362 -0.84630403 0.21219380
vn 0.19956321 -0.74488512 0.63664800
vn 0.00001368 -0.34193183 0.93972476
vn -0.08850602 0.33028466 0.93972269
vn 0.00001066 0.77113260 0.63667457
vn 0.25290414 0.94393487 0.21219437
vn 0.49907961 0.86440259 -0.06105488
vn 0.69177388 0.69176637 -0.20714292
vn 0.82153017 0.47431231 -0.31641114
vn 0.91704169 0.24571370 -0.31410080
vn 0.94939016 0.00000856 -0.31409924
vn 0.91703694 -0.24572996 -0.31410195
vn 0.82152204 -0.47432394 -0.31641482
vn 0.69177477 -0.69176651 -0.20713948
vn 0.49907517 -0.86440732 -0.06102420
vn 0.25292597 -0.94394032 0.21214411
vn 0.00003966 -0.77110240 0.63671115
vn -0.08848559 -0.33024352 0.93973907
vn -0.17093597 0.29609412 0.93973888
vn -0.19958378 0.74484703 0.63668612
vn 0.00000993 0.97723197 0.21217368
vn 0.25834013 0.96412361 -0.06104123
vn 0.48915693 0.84723710 -0.20715886
vn 0.67077213 0.67078238 -0.31641072
vn 0.82220336 0.47467875 -0.31410462
vn 0.92656507 0.24824981 -0.28257602
vn 0.95923756 0.00001086 -0.28260097
vn 0.92655934 -0.24827053 -0.28257661
vn 0.82219165 -0.47469959 -0.31410378
vn 0.67076608 -0.67078118 -0.31642609
vn 0.48915311 -0.84724234 -0.20714645
vn 0.25833749 -0.96412560 -0.06102106
vn 0.00002727 -0.97722298 0.21221508
vn -0.19961177 -0.74487359 0.63664628
vn -0.17096593 -0.29611373 0.93972725
vn -0.24178446 0.24178410 0.93972375
vn -0.38555329 0.66779810 0.63670587
vn -0.25290020 0.94393787 0.21218573
vn -0.00000181 0.99813588 -0.06103090
vn 0.25324654 0.94495942 -0.20716632
vn 0.47430340 0.82153914 -0.31640122
vn 0.67131767 0.67132055 -0.31410399
vn 0.83074066 0.47960615 -0.28257371
vn 0.83072590 -0.47963274 -0.28257197
vn 0.67132216 -0.67132181 -0.31409168
vn 0.47434165 -0.82150908 -0.31642192
vn 0.25321251 -0.94497596 -0.20713247
vn 0.00000342 -0.99813636 -0.06102293
vn -0.25295694 -0.94393341 0.21213792
vn -0.38557088 -0.66780708 0.63668579
vn -0.24178973 -0.24177933 0.93972362
vn -0.29614788 0.17095927 0.93971770
vn -0.54528580 0.54527982 0.63665793
vn -0.48863052 0.84629155 0.21220467
vn -0.25834302 0.96412243 -0.06104763
vn 0.00000074 0.97830952 -0.20714847
vn 0.24551520 0.91630524 -0.31639688
vn 0.47472387 0.82217291 -0.31411615
vn 0.67825019 0.67833007 -0.28256858
vn 0.67829798 -0.67828109 -0.28257143
vn 0.47473332 -0.82217501 -0.31409637
vn 0.24551194 -0.91629538 -0.31642797
vn 0.00000056 -0.97831174 -0.20713797
vn -0.25834295 -0.96412421 -0.06101984
vn -0.48859865 -0.84630898 0.21220855
vn -0.54526949 -0.54525580 0.63669247
vn -0.29612688 -0.17095986 0.93972421
vn -0.33024779 0.08849714 0.93973648
vn -0.66781335 0.38555090 0.63669132
vn -0.69102822 0.69098581 0.21217589
vn -0.49906637 0.86441103 -0.06104367
vn -0.25323841 0.94496500 -0.20715081
vn 0.00001640 0.94862051 -0.31641606
vn 0.24571192 0.91704646 -0.31408828
vn 0.47960654 0.83073676 -0.28258451
vn 0.47964921 -0.83071869 -0.28256519
vn 0.24570891 -0.91704317 -0.31410022
vn 0.00000481 -0.94861766 -0.31642461
vn -0.25319968 -0.94497968 -0.20713119
vn -0.49906768 -0.86441226 -0.06101550
vn -0.69101991 -0.69098275 0.21221294
vn -0.66780472 -0.38559320 0.63667475
vn -0.33024831 -0.08849802 0.93973622
vn -0.34190020 0.00000252 0.93973627
vn -0.74482913 0.19961204 0.63669820
vn -0.84629494 0.48862589 0.21220184
vn -0.70578753 0.70578909 -0.06103872
vn -0.48915806 0.84723838 -0.20715095
vn -0.24553835 0.91629625 -0.31640497
vn 0.00000907 0.94939251 -0.31409213
vn 0.24834444 0.92653147 -0.28260303
vn 0.24826783 -0.92656555 -0.28255859
vn 0.00001157 -0.94939179 -0.31409430
vn -0.24551946 -0.91629272 -0.31642984
vn -0.48916231 -0.84723967 -0.20713565
vn -0.70578992 -0.70578872 -0.06101538
vn -0.84629824 -0.48862876 0.21218204
vn -0.74483067 -0.19960729 0.63669789
vn -0.77112571 0.00000497 0.63668292
vn -0.94392492 0.25294475 0.21219023
vn -0.86441806 0.49905583 -0.06103030
vn -0.69177228 0.69176779 -0.20714352
vn -0.47428822 0.82154118 -0.31641867
vn -0.24573215 0.91703828 -0.31409633
vn -0.00000769 0.95924413 -0.28257866
vn 0.00001059 -0.95925076 -0.28255614
vn -0.24573003 -0.91703738 -0.31410061
vn -0.47432901 -0.82151282 -0.31643115
vn -0.69176998 -0.69177194 -0.20713736
vn -0.86442045 -0.49905358 -0.06101477
vn -0.94392439 -0.25295155 0.21218449
vn -0.97723182 0.00000592 0.21217441
vn -0.96412546 0.25833775 -0.06102217
vn -0.84724494 0.48915054 -0.20714191
vn -0.67077181 0.67077632 -0.31642425
vn -0.47470866 0.82219162 -0.31409016
vn -0.24831917 0.92654519 -0.28258025
vn -0.24826244 -0.92656861 -0.28255332
vn -0.47471451 -0.82218907 -0.31408800
vn -0.67077030 -0.67077424 -0.31643186
vn -0.84725061 -0.48914213 -0.20713855
vn -0.96412687 -0.25833288 -0.06102049
vn -0.99813620 -0.00000157 -0.06102567
vn -0.94497596 0.25321251 -0.20713247
vn -0.82152792 0.47431087 -0.31641914
vn -0.67132959 0.67131294 -0.31409475
vn -0.47959822 0.83074030 -0.28258821
vn -0.47964933 -0.83072313 -0.28255196
vn -0.67133339 -0.67130922 -0.31409460
vn -0.82151979 -0.47432249 -0.31642282
vn -0.94498070 -0.25319149 -0.20713655
vn -0.97831174 -0.00000546 -0.20713797
vn -0.91629538 0.24551194 -0.31642797
vn -0.82220178 0.47469165 -0.31408927
vn -0.67826506 0.67831696 -0.28256434
vn -0.67830804 -0.67827802 -0.28255463
vn -0.82219007 -0.47471249 -0.31408843
vn -0.91629594 -0.24552630 -0.31641522
vn -0.94861798 0.00000398 -0.31642366
vn -0.91704493 0.24570670 -0.31409682
vn -0.83074055 0.47961948 -0.28255140
vn -0.83072579 -0.47964606 -0.28254966
vn -0.91703833 -0.24572560 -0.31410131
vn -0.94939179 0.00001157 -0.31409430
vn -0.92657380 0.24823706 -0.28255859
vn -0.92656823 -0.24825754 -0.28255886
vn -0.95925076 0.00001059 -0.28255614
f 1//1 2//2 3//3
f 4//4 1//1 3//3
f 2//2 5//5 3//3
f 6//6 7//7 1//1
f 2//2 1//1 7//7
f 6//6 1//1 8//8
f 4//4 8//8 1//1
f 9//9 4//4 3//3
f 5//5 10//10 3//3
f 7//7 11//11 2//2
f 5//5 2//2 11//11
f 12//12 7//7 13//13
f 6//6 13//13 7//7
f 13//13 6//6 14//14
f 8//8 14//14 6//6
f 8//8 4//4 15//15
f 9//9 15//15 4//4
f 16//16 9//9 3//3
f 10//10 17//17 3//3
f 11//11 18//18 5//5
f 10//10 5//5 18//18
f 19//19 11//11 12//12
f 7//7 12//12 11//11
f 20//20 12//12 21//21
f 13//13 21//21 12//12
f 21//21 13//13 22//22
f 14//14 22//22 13//13
f 8//8 15//15 14//14
f 23//23 14//14 15//15
f 15//15 9//9 24//24
f 16//16 24//24 9//9
f 25//25 16//16 3//3
f 17//17 26//26 3//3
f 18//18 27//27 10//10
f 17//17 10//10 27//27
f 28//28 18//18 19//19
f 11//11 19//19 18//18
f 29//29 19//19 20//20
f 12//12 20//20 19//19
f 20//20 21//21 30//30
f 31//31 30//30 21//21
f 31//31 21//21 32//32
f 22//22 32//32 21//21
f 14//14 23//23 22//22
f 33//33 22//22 23//23
f 15//15 24//24 23//23
f 34//34 23//23 24//24
f 24//24 16//16 35//35
f 25//25 35//35 16//16
f 36//36 25//25 3//3
f 3//3 26//26 37//37
f 27//27 38//38 17//17
f 26//26 17//17 38//38
f 27//27 18//18 39//39
f 28//28 39//39 18//18
f 40//40 28//28 29//29
f 19//19 29//29 28//28
f 29//29 20//20 41//41
f 30//30 41//41 20//20
f 30//30 31//31 42//42
f 43//43 42//42 31//31
f 43//43 31//31 44//44
f 32//32 44//44 31//31
f 32//32 22//22 45//45
f 33//33 45//45 22//22
f 23//23 34//34 33//33
f 46//46 33//33 34//34
f 24//24 35//35 34//34
f 47//47 34//34 35//35
f 35//35 25//25 48//48
f 36//36 48//48 25//25
f 49//49 36//36 3//3
f 3//3 37//37 50//50
f 38//38 51//51 26//26
f 37//37 26//26 51//51
f 38//38 27//27 52//52
f 39//39 52//52 27//27
f 39//39 28//28 53//53
f 40//40 53//53 28//28
f 40//40 29//29 54//54
f 41//41 54//54 29//29
f 41//41 30//30 55//55
f 42//42 55//55 30//30
f 42//42 43//43 56//56
f 57//57 56//56 43//43
f 57//57 43//43 58//58
f 44//44 58//58 43//43
f 44//44 32//32 59//59
f 45//45 59//59 32//32
f 45//45 33//33 60//60
f 46//46 60//60 33//33
f 34//34 47//47 46//46
f 61//61 46//46 47//47
f 35//35 48//48 47//47
f 62//62 47//47 48//48
f 48//48 36//36 63//63
f 49//49 63//63 36//36
f 49//49 3//3 64//64
f 3//3 50//50 65//65
f 37//37 51//51 50//50
f 66//66 50//50 51//51
f 51//51 38//38 67//67
f 52//52 67//67 38//38
f 52//52 39//39 68//68
f 53//53 68//68 39//39
f 53//53 40//40 69//69
f 54//54 69//69 40//40
f 54//54 41//41 70//70
f 55//55 70//70 41//41
f 55//55 42//42 71//71
f 56//56 71//71 42//42
f 56//56 57//57 72//72
f 73//73 72//72 57//57
f 73//73 57//57 74//74
f 58//58 74//74 57//57
f 58//58 44//44 75//75
f 59//59 75//75 44//44
f 59//59 45//45 76//76
f 60//60 76//76 45//45
f 46//46 61//61 60//60
f 77//77 60//60 61//61
f 47//47 62//62 61//61
f 78//78 61//61 62//62
f 48//48 63//63 62//62
f 79//79 62//62 63//63
f 63//63 49//49 80//80
f 64//64 80//80 49//49
f 64//64 3//3 81//81
f 3//3 65//65 82//82
f 50//50 66//66 65//65
f 83//83 65//65 66//66
f 66//66 51//51 84//84
f 67//67 84//84 51//51
f 67//67 52//52 85//85
f 68//68 85//85 52//52
f 68//68 53//53 86//86
f 69//69 86//86 53//53
f 69//69 54//54 87//87
f 70//70 87//87 54//54
f 70//70 55//55 88//88
f 71//71 88//88 55//55
f 71//71 56//56 89//89
f 72//72 89//89 56//56
f 74//74 58//58 90//90
f 75//75 90//90 58//58
f 75//75 59//59 91//91
f 76//76 91//91 59//59
f 60//60 77//77 76//76
f 92//92 76//76 77//77
f 61//61 78//78 77//77
f 93//93 77//77 78//78
f 62//62 79//79 78//78
f 94//94 78//78 79//79
f 63//63 80//80 79//79
f 95//95 79//79 80//80
f 64//64 81//81 80//80
f 96//96 80//80 81//81
f 81//81 3//3 97//97
f 3//3 82//82 98//98
f 65//65 83//83 82//82
f 99//99 82//82 83//83
f 83//83 66//66 100//100
f 84//84 100//100 66//66
f 84//84 67//67 101//101
f 85//85 101//101 67//67
f 85//85 68//68 102//102
f 86//86 102//102 68//68
f 86//86 69//69 103//103
f 87//87 103//103 69//69
f 87//87 70//70 104//104
f 88//88 104//104 70//70
f 88//88 71//71 105//105
f 89//89 105//105 71//71
f 90//90 75//75 106//106
f 91//91 106//106 75//75
f 76//76 92//92 91//91
f 107//107 91//91 92//92
f 77//77 93//93 92//92
f 108//108 92//92 93//93
f 78//78 94//94 93//93
f 109//109 93//93 94//94
f 79//79 95//95 94//94
f 110//110 94//94 95//95
f 80//80 96//96 95//95
f 111//111 95//95 96//96
f 81//81 97//97 96//96
f 112//112 96//96 97//97
f 97//97 3//3 113//113
f 3//3 98//98 114//114
f 82//82 99//99 98//98
f 115//115 98//98 99//99
f 99//99 83//83 116//116
f 100//100 116//116 83//83
f 100//100 84//84 117//117
f 101//101 117//117 84//84
f 101//101 85//85 118//118
f 102//102 118//118 85//85
f 102//102 86//86 119//119
f 103//103 119//119 86//86
f 103//103 87//87 120//120
f 104//104 120//120 87//87
f 104//104 88//88 121//121
f 105//105 121//121 88//88
f 91//91 107//107 106//106
f 122//122 106//106 107//107
f 92//92 108//108 107//107
f 123//123 107//107 108//108
f 93//93 109//109 108//108
f 124//124 108//108 109//109
f 94//94 110//110 109//109
f 125//125 109//109 110//110
f 95//95 111//111 110//110
f 126//126 110//110 111//111
f 96//96 112//112 111//111
f 127//127 111//111 112//112
f 97//97 113//113 112//112
f 128//128 112//112 113//113
f 113//113 3//3 129//129
f 3//3 114//114 130//130
f 98//98 115//115 114//114
f 131//131 114//114 115//115
f 116//116 132//132 99//99
f 115//115 99//99 132//132
f 116//116 100//100 133//133
f 117//117 133//133 100//100
f 117//117 101//101 134//134
f 118//118 134//134 101//101
f 118//118 102//102 135//135
f 119//119 135//135 102//102
f 119//119 103//103 136//136
f 120//120 136//136 103//103
f 120//120 104//104 137//137
f 121//121 137//137 104//104
f 107//107 123//123 122//122
f 138//138 122//122 123//123
f 108//108 124//124 123//123
f 139//139 123//123 124//124
f 109//109 125//125 124//124
f 140//140 124//124 125//125
f 110//110 126//126 125//125
f 141//141 125//125 126//126
f 111//111 127//127 126//126
f 142//142 126//126 127//127
f 128//128 143//143 112//112
f 127//127 112//112 143//143
f 113//113 129//129 128//128
f 144//144 128//128 129//129
f 129//129 3//3 130//130
f 114//114 131//131 130//130
f 145//145 130//130 131//131
f 132//132 146//146 115//115
f 131//131 115//115 146//146
f 133//133 147//147 116//116
f 132//132 116//116 147//147
f 133//133 117//117 148//148
f 134//134 148//148 117//117
f 134//134 118//118 149//149
f 135//135 149//149 118//118
f 135//135 119//119 150//150
f 136//136 150//150 119//119
f 136//136 120//120 151//151
f 137//137 151//151 120//120
f 123//123 139//139 138//138
f 152//152 138//138 139//139
f 124//124 140//140 139//139
f 153//153 139//139 140//140
f 125//125 141//141 140//140
f 154//154 140//140 141//141
f 126//126 142//142 141//141
f 155//155 141//141 142//142
f 143//143 156//156 127//127
f 142//142 127//127 156//156
f 144//144 157//157 128//128
f 143//143 128//128 157//157
f 129//129 130//130 144//144
f 145//145 144//144 130//130
f 146//146 158//158 131//131
f 145//145 131//131 158//158
f 147//147 159//159 132//132
f 146//146 132//132 159//159
f 133//133 148//148 147//147
f 160//160 147//147 148//148
f 148//148 134//134 161//161
f 149//149 161//161 134//134
f 149//149 135//135 162//162
f 150//150 162//162 135//135
f 150//150 136//136 163//163
f 151//151 163//163 136//136
f 139//139 153//153 152//152
f 164//164 152//152 153//153
f 140//140 154//154 153//153
f 165//165 153//153 154//154
f 141//141 155//155 154//154
f 166//166 154//154 155//155
f 167//167 155//155 156//156
f 142//142 156//156 155//155
f 157//157 168//168 143//143
f 156//156 143//143 168//168
f 145//145 158//158 144//144
f 157//157 144//144 158//158
f 159//159 169//169 146//146
f 158//158 146//146 169//169
f 147//147 160//160 159//159
f 170//170 159//159 160//160
f 148//148 161//161 160//160
f 171//171 160//160 161//161
f 161//161 149//149 172//172
f 162//162 172//172 149//149
f 162//162 150//150 173//173
f 163//163 173//173 150//150
f 153//153 165//165 164//164
f 174//174 164//164 165//165
f 154//154 166//166 165//165
f 175//175 165//165 166//166
f 176//176 166//166 167//167
f 155//155 167//167 166//166
f 177//177 167//167 168//168
f 156//156 168//168 167//167
f 158//158 169//169 157//157
f 168//168 157//157 169//169
f 159//159 170//170 169//169
f 178//178 169//169 170//170
f 160//160 171//171 170//170
f 179//179 170//170 171//171
f 161//161 172//172 171//171
f 180//180 171//171 172//172
f 172//172 162//162 181//181
f 173//173 181//181 162//162
f 165//165 175//175 174//174
f 182//182 174//174 175//175
f 183//183 175//175 176//176
f 166//166 176//176 175//175
f 184//184 176//176 177//177
f 167//167 177//177 176//176
f 169//169 178//178 168//168
f 177//177 168//168 178//178
f 170//170 179//179 178//178
f 185//185 178//178 179//179
f 171//171 180//180 179//179
f 186//186 179//179 180//180
f 172//172 181//181 180//180
f 187//187 180//180 181//181
f 188//188 182//182 183//183
f 175//175 183//183 182//182
f 189//189 183//183 184//184
f 176//176 184//184 183//183
f 178//178 185//185 177//177
f 184//184 177//177 185//185
f 179//179 186//186 185//185
f 190//190 185//185 186//186
f 180//180 187//187 186//186
f 191//191 186//186 187//187
f 192//192 188//188 189//189
f 183//183 189//189 188//188
f 185//185 190//190 184//184
f 189//189 184//184 190//190
f 186//186 191//191 190//190
f 193//193 190//190 191//191
f 190//190 193//193 189//189
f 192//192 189//189 193//193