# https://github.com/mikedh/trimesh
v 0.00260400 0.01716100 0.04187000
v -0.00814700 0.02477700 0.03517100
v -0.01428300 0.02179400 0.03517100
v -0.00144900 0.02607000 0.03517100
v -0.00192800 0.01748400 0.04187000
v 0.00535600 0.02558600 0.03517100
v -0.00638900 0.01662200 0.04187000
v 0.00689800 0.01567700 0.04187000
v -0.01047500 0.01463600 0.04187000
v 0.01066100 0.01313200 0.04187000
v -0.01943700 0.01732400 0.03517100
v 0.01180400 0.02335700 0.03517100
v -0.01390700 0.01165900 0.04187000
v 0.01363800 0.00969900 0.04187000
v -0.02325900 0.01167300 0.03517100
v 0.01745500 0.01953500 0.03517100
v -0.01645300 0.00789600 0.04187000
v 0.01562500 0.00561300 0.04187000
v -0.02548800 0.00522500 0.03517100
v 0.02192400 0.01438100 0.03517100
v -0.02597200 -0.00158000 0.03517100
v 0.01648600 0.00115200 0.04187000
v -0.02467900 -0.00827800 0.03517100
v 0.02490700 0.00824500 0.03517100
v -0.01793700 0.00360200 0.04187000
v 0.02620100 0.00154700 0.03517100
v -0.01826000 -0.00093000 0.04187000
v 0.01616300 -0.00338000 0.04187000
v -0.01739800 -0.00539100 0.04187000
v 0.02571700 -0.00525800 0.03517100
v -0.02169600 -0.01441400 0.03517100
v 0.02348800 -0.01170600 0.03517100
v -0.01541200 -0.00947700 0.04187000
v 0.01467900 -0.00767400 0.04187000
v -0.01897300 -0.01755400 0.03517100
v 0.01213400 -0.01143700 0.04187000
v -0.01243500 -0.01291000 0.04187000
v 0.00870100 -0.01441400 0.04187000
v -0.01722600 -0.01956800 0.03517100
v 0.00461500 -0.01640000 0.04187000
v -0.00867200 -0.01545500 0.04187000
v 0.01966600 -0.01735700 0.03517100
v -0.01440100 -0.02147900 0.03517100
v 0.01451200 -0.02182700 0.03517100
v -0.01157500 -0.02339000 0.03517100
v 0.00015400 -0.01726200 0.04187000
v -0.00512700 -0.02561900 0.03517100
v 0.00837600 -0.02481000 0.03517100
v -0.00437800 -0.01693900 0.04187000
v 0.00167800 -0.02610300 0.03517100
v -0.01047500 0.01463600 0.03517100
v -0.01390700 0.01165900 0.03517100
v -0.01645300 0.00789600 0.03517100
v -0.00638900 0.01662200 0.03517100
v -0.01793700 0.00360200 0.03517100
v -0.00192800 0.01748400 0.03517100
v -0.01826000 -0.00093000 0.03517100
v 0.00260400 0.01716100 0.03517100
v -0.01739800 -0.00539100 0.03517100
v 0.00689800 0.01567700 0.03517100
v -0.01541200 -0.00947700 0.03517100
v 0.01066100 0.01313200 0.03517100
v -0.01243500 -0.01291000 0.03517100
v 0.01363800 0.00969900 0.03517100
v -0.00867200 -0.01545500 0.03517100
v 0.01562500 0.00561300 0.03517100
v -0.00437800 -0.01693900 0.03517100
v 0.01648600 0.00115200 0.03517100
v 0.00015400 -0.01726200 0.03517100
v 0.01616300 -0.00338000 0.03517100
v 0.00461500 -0.01640000 0.03517100
v 0.01467900 -0.00767400 0.03517100
v 0.00870100 -0.01441400 0.03517100
v 0.01213400 -0.01143700 0.03517100
v 0.02192400 0.01438100 -0.04599800
v 0.01180400 0.02335700 -0.04599800
v 0.01745500 0.01953500 -0.04599800
v 0.00535600 0.02558600 -0.04599800
v -0.00144900 0.02607000 -0.04599800
v -0.00814700 0.02477700 -0.04599800
v -0.01428300 0.02179400 -0.04599800
v -0.01943700 0.01732400 -0.04599800
v -0.02169600 -0.01441400 -0.04599800
v -0.02325900 0.01167300 -0.04599800
v -0.02467900 -0.00827800 -0.04599800
v -0.02548800 0.00522500 -0.04599800
v -0.02597200 -0.00158000 -0.04599800
v 0.02571700 -0.00525800 -0.04599800
v 0.02490700 0.00824500 -0.04599800
v 0.02620100 0.00154700 -0.04599800
v 0.02348800 -0.01170600 -0.04599800
v 0.01966600 -0.01735700 -0.04599800
v 0.01451200 -0.02182700 -0.04599800
v 0.00837600 -0.02481000 -0.04599800
v 0.00167800 -0.02610300 -0.04599800
v -0.00512700 -0.02561900 -0.04599800
v -0.01157500 -0.02339000 -0.04599800
v -0.01722600 -0.01956800 -0.04599800
v 0.00318500 0.00716300 0.04187000
v 0.00344100 -0.00564200 0.04187000
v 0.00390300 0.00809800 0.04187000
v 0.00224900 0.00644500 0.04187000
v 0.00116000 0.00599400 0.04187000
v 0.00057500 0.00591700 0.04187000
v 0.00450800 0.01035700 0.04187000
v 0.00435400 0.01152600 0.04187000
v 0.00390300 0.01261500 0.04187000
v 0.00318500 0.01355100 0.04187000
v 0.00224900 0.01426800 0.04187000
v 0.00116000 0.01472000 0.04187000
v -0.00000900 0.01487400 0.04187000
v -0.00117800 0.01472000 0.04187000
v -0.00226800 0.01426800 0.04187000
v -0.00320300 0.01355100 0.04187000
v -0.00392100 0.01261500 0.04187000
v -0.00437200 0.01152600 0.04187000
v -0.00452600 0.01035700 0.04187000
v 0.00435400 0.00918800 0.04187000
v 0.00050700 -0.01029600 0.04187000
v -0.00661300 -0.01029600 0.04187000
v -0.00437200 0.00918800 0.04187000
v -0.00392100 0.00809800 0.04187000
v -0.00661300 0.00099300 0.04187000
v -0.00320300 0.00716300 0.04187000
v -0.00000900 0.00584000 0.04187000
v -0.00117800 0.00599400 0.04187000
v -0.00226800 0.00644500 0.04187000
vn 0.11465930 0.67725900 0.72675545
vn -0.21518080 0.61739505 0.75665089
vn -0.36712835 0.58259894 0.72511740
vn -0.04601090 0.67619061 0.73528855
vn -0.01545071 0.79223549 0.61001984
vn 0.14347348 0.66475324 0.73315653
vn -0.21166403 0.68110151 0.70092729
vn 0.32340391 0.61743257 0.71706829
vn -0.38379729 0.57797103 0.72017298
vn 0.46477869 0.51859125 0.71766558
vn -0.52280095 0.46512767 0.71437765
vn 0.29808963 0.59555859 0.74595747
vn -0.52252486 0.46152541 0.71691148
vn 0.58028306 0.37838768 0.72117566
vn -0.62753675 0.31459326 0.71219991
vn 0.43979301 0.49577946 0.74885568
vn -0.63996358 0.29609805 0.70906457
vn 0.65623617 0.21402849 0.72356471
vn -0.67761474 0.13095035 0.72366447
vn 0.55078040 0.36379832 0.75119354
vn -0.65772471 -0.05003192 0.75159498
vn 0.66649881 0.04873585 0.74391139
vn -0.66234471 -0.20848515 0.71960644
vn 0.62609654 0.21434685 0.74970564
vn -0.79583381 0.19931862 0.57176974
vn 0.66902943 0.03985189 0.74216673
vn -0.72783685 -0.02563549 0.68527100
vn 0.65090014 -0.13341594 0.74734811
vn -0.66316778 -0.21981523 0.71546472
vn 0.65641077 -0.13425589 0.74236127
vn -0.58226819 -0.38587439 0.71558697
vn 0.58961710 -0.30609528 0.74743385
vn -0.58166528 -0.38195282 0.71817654
vn 0.59476544 -0.29816315 0.74656066
vn -0.51456150 -0.44628394 0.73215921
vn 0.50604254 -0.46883416 0.72395820
vn -0.46073741 -0.51644071 0.72181025
vn 0.39952827 -0.66317176 0.63291419
vn -0.45996074 -0.52100645 0.71901905
vn 0.22292540 -0.66644524 0.71144571
vn -0.30957956 -0.61405607 0.72601353
vn 0.48334368 -0.41682656 0.76982758
vn -0.35445938 -0.52407662 0.77440444
vn 0.36620181 -0.55045499 0.75026365
vn -0.30750687 -0.61871140 0.72293549
vn 0.04645903 -0.67955009 0.73215657
vn -0.13598115 -0.67297725 0.72705623
vn 0.21793856 -0.63059694 0.74488273
vn -0.13921268 -0.66860318 0.73047219
vn 0.04245535 -0.68099351 0.73105771
vn -0.37192456 0.56339795 0.73773632
vn -0.50512020 0.44801476 0.73765599
vn -0.60377449 0.30199773 0.73773555
vn -0.21344147 0.64053573 0.73766979
vn -0.66143417 0.13542231 0.73767584
vn -0.04038964 0.67388885 0.73772793
vn -0.67388885 -0.04038964 0.73772793
vn 0.13542231 0.66143417 0.73767584
vn -0.64053573 -0.21344147 0.73766979
vn 0.30195347 0.60382357 0.73771350
vn -0.56344067 -0.37189444 0.73771888
vn 0.44797651 0.50509646 0.73769547
vn -0.44797651 -0.50509646 0.73769547
vn 0.56342568 0.37196461 0.73769494
vn -0.30195347 -0.60382357 0.73771350
vn 0.64048576 0.21341836 0.73771986
vn -0.13542231 -0.66143417 0.73767584
vn 0.67392171 0.04031853 0.73770180
vn 0.04038964 -0.67388885 0.73772793
vn 0.66143417 -0.13542231 0.73767584
vn 0.21344147 -0.64053573 0.73766979
vn 0.60382357 -0.30195347 0.73771350
vn 0.37189444 -0.56344067 0.73771888
vn 0.50509646 -0.44797651 0.73769547
vn 0.61279937 0.40448830 -0.67887123
vn 0.32843717 0.65670725 -0.67887010
vn 0.48722062 0.54931282 -0.67887518
vn 0.14725332 0.71933960 -0.67887186
vn -0.04391555 0.73293062 -0.67888448
vn -0.23208740 0.69661042 -0.67887360
vn -0.40452805 0.61278577 -0.67885982
vn -0.54933190 0.48718320 -0.67888658
vn -0.61278575 -0.40452729 -0.67886029
vn -0.65670725 0.32843717 -0.67887010
vn -0.69661042 -0.23208740 -0.67887360
vn -0.71933960 0.14725332 -0.67887186
vn -0.73293062 -0.04391555 -0.67888448
vn 0.71933960 -0.14725332 -0.67887186
vn 0.69658071 0.23213320 -0.67888843
vn 0.73294114 0.04396911 -0.67886966
vn 0.65670725 -0.32843717 -0.67887010
vn 0.54933190 -0.48718320 -0.67888658
vn 0.40452805 -0.61278577 -0.67885982
vn 0.23208740 -0.69661042 -0.67887360
vn 0.04391555 -0.73293062 -0.67888448
vn -0.14725332 -0.71933960 -0.67887186
vn -0.32843717 -0.65670725 -0.67887010
vn -0.48718245 -0.54933198 -0.67888706
vn 0.00000000 0.00000000 1.00000000
vn 0.00000000 0.00000000 1.00000000
vn 0.00000000 0.00000000 1.00000000
vn 0.00000000 0.00000000 1.00000000
vn 0.00000000 0.00000000 1.00000000
vn 0.00000000 0.00000000 1.00000000
vn 0.00000000 0.00000000 1.00000000
vn 0.00000000 0.00000000 1.00000000
vn 0.00000000 0.00000000 1.00000000
vn 0.00000000 0.00000000 1.00000000
vn 0.00000000 0.00000000 1.00000000
vn 0.00000000 0.00000000 1.00000000
vn 0.00000000 0.00000000 1.00000000
vn 0.00000000 0.00000000 1.00000000
vn 0.00000000 0.00000000 1.00000000
vn 0.00000000 0.00000000 1.00000000
vn 0.00000000 0.00000000 1.00000000
vn 0.00000000 0.00000000 1.00000000
vn 0.00000000 0.00000000 1.00000000
vn 0.00000000 0.00000000 1.00000000
vn 0.00000000 0.00000000 1.00000000
vn 0.00000000 0.00000000 1.00000000
vn 0.00000000 0.00000000 1.00000000
vn 0.00000000 0.00000000 1.00000000
vn 0.00000000 0.00000000 1.00000000
vn 0.00000000 0.00000000 1.00000000
vn 0.00000000 0.00000000 1.00000000
vn 0.00000000 0.00000000 1.00000000
vn 0.00000000 0.00000000 1.00000000
f 1//1 2//2 3//3
f 1//1 4//4 2//2
f 1//1 3//3 5//5
f 6//6 4//4 1//1
f 5//5 3//3 7//7
f 8//8 6//6 1//1
f 7//7 3//3 9//9
f 10//10 6//6 8//8
f 9//9 3//3 11//11
f 12//12 6//6 10//10
f 9//9 11//11 13//13
f 14//14 12//12 10//10
f 13//13 11//11 15//15
f 16//16 12//12 14//14
f 13//13 15//15 17//17
f 16//16 14//14 18//18
f 17//17 15//15 19//19
f 20//20 16//16 18//18
f 17//17 19//19 21//21
f 20//20 18//18 22//22
f 17//17 21//21 23//23
f 24//24 20//20 22//22
f 17//17 23//23 25//25
f 26//26 24//24 22//22
f 25//25 23//23 27//27
f 26//26 22//22 28//28
f 29//29 27//27 23//23
f 26//26 28//28 30//30
f 29//29 23//23 31//31
f 30//30 28//28 32//32
f 33//33 29//29 31//31
f 32//32 28//28 34//34
f 33//33 31//31 35//35
f 32//32 34//34 36//36
f 37//37 33//33 35//35
f 32//32 36//36 38//38
f 37//37 35//35 39//39
f 40//40 32//32 38//38
f 41//41 37//37 39//39
f 32//32 40//40 42//42
f 41//41 39//39 43//43
f 42//42 40//40 44//44
f 41//41 43//43 45//45
f 44//44 40//40 46//46
f 47//47 41//41 45//45
f 44//44 46//46 48//48
f 49//49 41//41 47//47
f 48//48 46//46 50//50
f 49//49 50//50 46//46
f 50//50 49//49 47//47
f 51//51 13//13 9//9
f 13//13 51//51 52//52
f 53//53 13//13 52//52
f 13//13 53//53 17//17
f 54//54 9//9 7//7
f 9//9 54//54 51//51
f 55//55 17//17 53//53
f 17//17 55//55 25//25
f 56//56 7//7 5//5
f 7//7 56//56 54//54
f 57//57 25//25 55//55
f 25//25 57//57 27//27
f 58//58 5//5 1//1
f 5//5 58//58 56//56
f 59//59 27//27 57//57
f 27//27 59//59 29//29
f 60//60 1//1 8//8
f 1//1 60//60 58//58
f 61//61 29//29 59//59
f 29//29 61//61 33//33
f 62//62 8//8 10//10
f 8//8 62//62 60//60
f 63//63 33//33 61//61
f 33//33 63//63 37//37
f 14//14 62//62 10//10
f 62//62 14//14 64//64
f 63//63 41//41 37//37
f 41//41 63//63 65//65
f 18//18 64//64 14//14
f 64//64 18//18 66//66
f 65//65 49//49 41//41
f 49//49 65//65 67//67
f 22//22 66//66 18//18
f 66//66 22//22 68//68
f 67//67 46//46 49//49
f 46//46 67//67 69//69
f 28//28 68//68 22//22
f 68//68 28//28 70//70
f 69//69 40//40 46//46
f 40//40 69//69 71//71
f 34//34 70//70 28//28
f 70//70 34//34 72//72
f 71//71 38//38 40//40
f 38//38 71//71 73//73
f 36//36 72//72 34//34
f 72//72 36//36 74//74
f 73//73 36//36 38//38
f 36//36 73//73 74//74
f 75//75 76//76 77//77
f 75//75 78//78 76//76
f 75//75 79//79 78//78
f 75//75 80//80 79//79
f 75//75 81//81 80//80
f 75//75 82//82 81//81
f 83//83 82//82 75//75
f 83//83 84//84 82//82
f 85//85 84//84 83//83
f 85//85 86//86 84//84
f 86//86 85//85 87//87
f 88//88 89//89 90//90
f 91//91 89//89 88//88
f 91//91 75//75 89//89
f 92//92 75//75 91//91
f 93//93 75//75 92//92
f 94//94 75//75 93//93
f 95//95 75//75 94//94
f 96//96 75//75 95//95
f 97//97 75//75 96//96
f 98//98 75//75 97//97
f 75//75 98//98 83//83
f 99//99 100//100 101//101
f 102//102 100//100 99//99
f 103//103 100//100 102//102
f 100//100 103//103 104//104
f 18//18 28//28 22//22
f 18//18 34//34 28//28
f 14//14 34//34 18//18
f 14//14 36//36 34//34
f 10//10 36//36 14//14
f 10//10 38//38 36//36
f 8//8 38//38 10//10
f 8//8 40//40 38//38
f 8//8 105//105 40//40
f 8//8 106//106 105//105
f 8//8 107//107 106//106
f 8//8 108//108 107//107
f 1//1 108//108 8//8
f 1//1 109//109 108//108
f 1//1 110//110 109//109
f 1//1 111//111 110//110
f 1//1 112//112 111//111
f 5//5 112//112 1//1
f 5//5 113//113 112//112
f 5//5 114//114 113//113
f 5//5 115//115 114//114
f 5//5 116//116 115//115
f 116//116 7//7 117//117
f 7//7 116//116 5//5
f 118//118 40//40 105//105
f 101//101 40//40 118//118
f 100//100 40//40 101//101
f 119//119 40//40 100//100
f 119//119 46//46 40//40
f 119//119 49//49 46//46
f 120//120 49//49 119//119
f 49//49 120//120 41//41
f 7//7 121//121 117//117
f 122//122 123//123 124//124
f 121//121 123//123 122//122
f 7//7 123//123 121//121
f 123//123 41//41 120//120
f 7//7 41//41 123//123
f 9//9 41//41 7//7
f 9//9 37//37 41//41
f 13//13 37//37 9//9
f 13//13 33//33 37//37
f 17//17 33//33 13//13
f 17//17 29//29 33//33
f 25//25 29//29 17//17
f 29//29 25//25 27//27
f 123//123 119//119 100//100
f 119//119 123//123 120//120
f 125//125 100//100 104//104
f 126//126 100//100 125//125
f 127//127 100//100 126//126
f 124//124 100//100 127//127
f 100//100 124//124 123//123
f 106//106 118//118 105//105
f 107//107 118//118 106//106
f 107//107 101//101 118//118
f 108//108 101//101 107//107
f 108//108 99//99 101//101
f 109//109 99//99 108//108
f 109//109 102//102 99//99
f 110//110 102//102 109//109
f 110//110 103//103 102//102
f 110//110 104//104 103//103
f 111//111 104//104 110//110
f 111//111 125//125 104//104
f 112//112 125//125 111//111
f 112//112 126//126 125//125
f 113//113 126//126 112//112
f 113//113 127//127 126//126
f 114//114 127//127 113//113
f 114//114 124//124 127//127
f 115//115 124//124 114//114
f 115//115 122//122 124//124
f 116//116 122//122 115//115
f 116//116 121//121 122//122
f 121//121 116//116 117//117
f 32//32 88//88 30//30
f 88//88 32//32 91//91
f 42//42 91//91 32//32
f 91//91 42//42 92//92
f 93//93 42//42 44//44
f 42//42 93//93 92//92
f 94//94 44//44 48//48
f 44//44 94//94 93//93
f 95//95 48//48 50//50
f 48//48 95//95 94//94
f 96//96 50//50 47//47
f 50//50 96//96 95//95
f 97//97 47//47 45//45
f 47//47 97//97 96//96
f 39//39 45//45 43//43
f 98//98 45//45 39//39
f 45//45 98//98 97//97
f 83//83 35//35 31//31
f 98//98 35//35 83//83
f 35//35 98//98 39//39
f 83//83 23//23 85//85
f 23//23 83//83 31//31
f 85//85 21//21 87//87
f 21//21 85//85 23//23
f 87//87 19//19 86//86
f 19//19 87//87 21//21
f 86//86 15//15 84//84
f 15//15 86//86 19//19
f 84//84 11//11 82//82
f 11//11 84//84 15//15
f 81//81 11//11 3//3
f 11//11 81//81 82//82
f 80//80 3//3 2//2
f 3//3 80//80 81//81
f 79//79 2//2 4//4
f 2//2 79//79 80//80
f 78//78 4//4 6//6
f 4//4 78//78 79//79
f 76//76 6//6 12//12
f 6//6 76//76 78//78
f 77//77 12//12 16//16
f 12//12 77//77 76//76
f 20//20 77//77 16//16
f 77//77 20//20 75//75
f 24//24 75//75 20//20
f 75//75 24//24 89//89
f 26//26 89//89 24//24
f 89//89 26//26 90//90
f 30//30 90//90 26//26
f 90//90 30//30 88//88
f 16//16 66//66 68//68
f 16//16 64//64 66//66
f 12//12 64//64 16//16
f 12//12 62//62 64//64
f 12//12 60//60 62//62
f 6//6 60//60 12//12
f 6//6 58//58 60//60
f 4//4 58//58 6//6
f 4//4 56//56 58//58
f 4//4 54//54 56//56
f 2//2 54//54 4//4
f 2//2 51//51 54//54
f 2//2 52//52 51//51
f 3//3 52//52 2//2
f 3//3 53//53 52//52
f 3//3 55//55 53//53
f 11//11 55//55 3//3
f 11//11 57//57 55//55
f 11//11 35//35 57//57
f 11//11 31//31 35//35
f 15//15 31//31 11//11
f 15//15 23//23 31//31
f 19//19 23//23 15//15
f 23//23 19//19 21//21
f 24//24 30//30 26//26
f 24//24 32//32 30//30
f 20//20 32//32 24//24
f 20//20 42//42 32//32
f 16//16 42//42 20//20
f 68//68 42//42 16//16
f 70//70 42//42 68//68
f 72//72 42//42 70//70
f 72//72 44//44 42//42
f 74//74 44//44 72//72
f 73//73 44//44 74//74
f 73//73 48//48 44//44
f 71//71 48//48 73//73
f 71//71 50//50 48//48
f 69//69 50//50 71//71
f 67//67 50//50 69//69
f 67//67 47//47 50//50
f 65//65 47//47 67//67
f 65//65 45//45 47//47
f 63//63 45//45 65//65
f 63//63 43//43 45//45
f 61//61 43//43 63//63
f 61//61 39//39 43//43
f 59//59 39//39 61//61
f 57//57 39//39 59//59
f 39//39 57//57 35//35