# https://github.com/mikedh/trimesh
v -0.04063800 0.04063800 -0.04063800
v 0.04063800 0.04063800 0.04063800
v -0.04063800 -0.04063800 0.04063800
v 0.04063800 -0.04063800 -0.04063800
v 0.04063800 0.04063800 -0.04063800
v -0.04063800 0.04063800 0.04063800
v 0.04063800 -0.04063800 0.04063800
v -0.04063800 -0.04063800 -0.04063800
vn -0.57735027 0.57735027 -0.57735027
vn 0.57735027 0.57735027 0.57735027
vn -0.57735027 -0.57735027 0.57735027
vn 0.57735027 -0.57735027 -0.57735027
vn 0.57735027 0.57735027 -0.57735027
vn -0.57735027 0.57735027 0.57735027
vn 0.57735027 -0.57735027 0.57735027
vn -0.57735027 -0.57735027 -0.57735027
f 6//6 2//2 5//5
f 6//6 5//5 1//1
f 3//3 4//4 7//7
f 4//4 8//8 1//1
f 4//4 1//1 5//5
f 6//6 1//1 8//8
f 6//6 7//7 2//2
f 6//6 8//8 3//3
f 4//4 2//2 7//7
f 4//4 5//5 2//2
f 6//6 3//3 7//7
f 3//3 8//8 4//4