# https://github.com/mikedh/trimesh
v 0.04439100 0.00510800 0.03933400
v 0.03435100 0.00510800 0.03904700
v 0.04439100 -0.00459000 0.03933400
v 0.04908800 0.00834100 0.03007000
v 0.04889800 0.00510800 0.02986000
v 0.04110200 0.00510800 0.03308900
v 0.05593600 0.00834100 0.02477500
v 0.05559300 0.00510800 0.02472200
v 0.06133000 0.00834100 0.01808000
v 0.06073000 0.00510800 0.01802700
v 0.06439100 0.00834100 0.01028300
v 0.06396000 0.00510800 0.01023100
v 0.06540900 0.00834100 0.00191700
v 0.06506100 0.00510800 0.00186400
v 0.04439100 0.00510800 -0.03560500
v 0.03435100 0.00510800 -0.03531100
v 0.04413400 0.00834100 -0.03462300
v 0.05374700 0.00510800 -0.03173000
v 0.06178100 0.00510800 -0.02556500
v 0.05166100 0.00834100 -0.03152300
v 0.06391000 0.00834100 -0.02093900
v 0.06794500 0.00510800 -0.01753200
v 0.06807100 0.00834100 -0.01394200
v 0.07182100 0.00510800 -0.00817600
v 0.07064600 0.00834100 -0.00621900
v 0.07314200 0.00510800 0.00186400
v 0.07151700 0.00834100 0.00187500
v 0.07182100 0.00510800 0.01190400
v 0.06807100 0.00834100 0.01769100
v 0.06794500 0.00510800 0.02126000
v 0.06391000 0.00834100 0.02468900
v 0.06178100 0.00510800 0.02929400
v 0.05835600 0.00834100 0.03064000
v 0.05374700 0.00510800 0.03545800
v 0.04413400 0.00834100 0.03837300
v 0.06438100 0.00834100 -0.00645000
v 0.06396000 0.00510800 -0.00650200
v 0.06506100 -0.00459000 0.00186400
v 0.06396000 -0.00459000 0.01023100
v 0.06073000 -0.00459000 0.01802700
v 0.05559300 -0.00459000 0.02472200
v 0.04889800 -0.00459000 0.02986000
v 0.05374700 -0.00459000 0.03545800
v 0.06178100 -0.00459000 0.02929400
v 0.06794500 -0.00459000 0.02126000
v 0.07182100 -0.00459000 0.01190400
v 0.07314200 -0.00459000 0.00186400
v 0.07182100 -0.00459000 -0.00817600
v 0.06794500 -0.00459000 -0.01753200
v 0.06178100 -0.00459000 -0.02556500
v 0.05374700 -0.00459000 -0.03173000
v 0.04439100 -0.00459000 -0.03560500
v 0.03435100 -0.00459000 -0.03531100
v 0.04110200 -0.00459000 0.03308900
v 0.03273500 0.00510800 0.03150700
v 0.03304600 0.00834100 0.03233500
v 0.03435100 -0.00459000 0.03903900
v 0.04079800 0.00834100 0.03354300
v 0.06122800 0.00834100 -0.01424600
v 0.03467000 0.00834100 -0.03462300
v 0.05835600 0.00834100 -0.02689100
v 0.07064600 0.00834100 0.00996900
v 0.05166100 0.00834100 0.03527200
v 0.03467000 0.00834100 0.03777100
v 0.06073000 0.00510800 -0.01429900
v 0.06396000 -0.00459000 -0.00650200
v 0.06073000 -0.00459000 -0.01429900
v 0.06143800 -0.00782200 -0.01429900
v 0.06561900 -0.00782200 0.00186400
v 0.06460100 -0.00782200 0.01023100
v 0.06154000 -0.00782200 0.01802700
v 0.05614600 -0.00782200 0.02472200
v 0.04929800 -0.00782200 0.03001800
v 0.03325600 -0.00782200 0.03228200
v 0.03273500 -0.00459000 0.03150700
v 0.04413400 -0.00782200 0.03837300
v 0.05835600 -0.00782200 0.03064000
v 0.06391000 -0.00782200 0.02468900
v 0.06807100 -0.00782200 0.01769100
v 0.07151700 -0.00782200 0.00187500
v 0.07064600 -0.00782200 -0.00621900
v 0.06807100 -0.00782200 -0.01394200
v 0.06391000 -0.00782200 -0.02093900
v 0.05166100 -0.00782200 -0.03152300
v 0.04413400 -0.00782200 -0.03462300
v 0.03273500 -0.00459000 0.03856600
v 0.03467000 -0.00782200 0.03777100
v 0.03240300 -0.00711500 0.03740500
v 0.03230900 -0.00782200 0.03714900
v 0.03230900 -0.00782200 0.03263300
v 0.03337300 0.00025800 0.03875700
v 0.03337300 0.00025800 0.03162800
v 0.03467000 -0.00782200 -0.03462300
v 0.03273500 -0.00459000 -0.03483800
v 0.03240300 -0.00711500 -0.03413100
v 0.03291700 -0.00320500 -0.03489100
v 0.03337300 0.00025800 -0.02874600
v 0.03337300 0.00025800 -0.03502500
v 0.03273500 -0.00459000 -0.02869500
v 0.03230900 -0.00782200 -0.02960200
v 0.03230900 -0.00782200 -0.03394600
v 0.03230900 0.00834100 0.03261100
v 0.03230900 0.00834100 0.03714900
v 0.03240200 0.00763300 0.03740500
v 0.03273500 0.00510800 0.03857200
v 0.03291700 0.00372300 0.03862600
v 0.03273500 0.00510800 -0.03483800
v 0.03240200 0.00763300 -0.03413100
v 0.03230900 0.00834100 -0.03394600
v 0.03230900 0.00834100 -0.02950100
v 0.03273500 0.00510800 -0.02869500
v 0.03299100 0.00834100 -0.02930700
v 0.04129200 0.00834100 -0.02980200
v 0.04110200 0.00510800 -0.02936000
v 0.05584500 0.00834100 -0.02159800
v 0.04916600 0.00834100 -0.02676800
v 0.05559300 0.00510800 -0.02099400
v 0.05559300 -0.00459000 -0.02099400
v 0.05605500 -0.00782200 -0.02165000
v 0.06459100 -0.00782200 -0.00650200
v 0.04100800 -0.00782200 0.03349000
v 0.05166100 -0.00782200 0.03527200
v 0.07064600 -0.00782200 0.00996900
v 0.05835600 -0.00782200 -0.02689100
v 0.03320100 -0.00782200 -0.02936000
v 0.04110200 -0.00459000 -0.02936000
v 0.04889800 0.00510800 -0.02613100
v 0.04889800 -0.00459000 -0.02613100
v 0.04150200 -0.00782200 -0.02985400
v 0.04937600 -0.00782200 -0.02682000
vn 0.18052453 0.14547660 0.97275251
vn -0.16094910 0.18380044 0.96969726
vn 0.18024635 -0.14560964 0.97278419
vn -0.32354482 0.76600463 -0.55547786
vn -0.49950956 0.04229723 -0.86527518
vn -0.11917449 0.06780731 -0.99055520
vn -0.45401469 0.76304053 -0.46004327
vn -0.70137159 0.04646059 -0.71128005
vn -0.53109194 0.79342040 -0.29736412
vn -0.86321129 0.08138887 -0.49823903
vn -0.60443001 0.78115434 -0.15640418
vn -0.96416149 0.06493048 -0.25724823
vn -0.63629688 0.77143921 -0.00279901
vn -0.99847642 0.05517122 -0.00099265
vn 0.18000391 0.14823947 -0.97243182
vn -0.15257414 0.11380003 -0.98171823
vn 0.11529258 0.76903450 -0.62872376
vn 0.50580308 0.18520632 -0.84253301
vn 0.69437257 0.19645298 -0.69228099
vn 0.27942213 0.79457003 -0.53905634
vn 0.46278234 0.81336938 -0.35250925
vn 0.84719860 0.21021846 -0.48791672
vn 0.51932929 0.82266097 -0.23135691
vn 0.94261932 0.21782514 -0.25302376
vn 0.54576297 0.83088050 -0.10853745
vn 0.97468158 0.22356787 0.00363758
vn 0.55245448 0.83352506 0.00547871
vn 0.94316674 0.21861955 0.25028381
vn 0.52012985 0.82203052 0.23179895
vn 0.84749528 0.20895194 0.48794553
vn 0.46392035 0.81231905 0.35343410
vn 0.69744267 0.19325815 0.69009059
vn 0.37796952 0.80338425 0.46012259
vn 0.49817237 0.16979440 0.85029063
vn 0.11165209 0.76735524 0.63142675
vn -0.61064530 0.77604355 0.15769820
vn -0.96396763 0.06207557 0.25867554
vn -0.99616493 -0.08747470 0.00190034
vn -0.96166769 -0.09820697 -0.25602859
vn -0.85629601 -0.10258016 -0.50619607
vn -0.70283254 -0.06055426 -0.70877330
vn -0.49635129 -0.05183858 -0.86657265
vn 0.49816999 -0.16984471 0.85028197
vn 0.69743547 -0.19331544 0.69008181
vn 0.84748388 -0.20901196 0.48793962
vn 0.94315354 -0.21867876 0.25028183
vn 0.97466817 -0.22362632 0.00363763
vn 0.94260611 -0.21788478 -0.25302161
vn 0.84718710 -0.21027869 -0.48791074
vn 0.69436565 -0.19651007 -0.69227173
vn 0.50580088 -0.18525864 -0.84252282
vn 0.18000309 -0.14828144 -0.97242558
vn -0.15260147 -0.11380982 -0.98171285
vn -0.11326920 -0.06450334 -0.99146831
vn 0.72151792 0.16860231 -0.67155428
vn -0.05120118 0.74299566 -0.66733491
vn -0.16071287 -0.18354187 0.96978542
vn -0.05994006 0.81159826 -0.58113290
vn -0.54757390 0.77793509 0.30818798
vn -0.08886629 0.75376154 -0.65111161
vn 0.37512533 0.78936537 -0.48598694
vn 0.55278740 0.82694651 0.10288617
vn 0.27224529 0.79456586 0.54272239
vn -0.09879892 0.81134037 0.57616453
vn -0.86243485 0.06221464 0.50233004
vn -0.96197246 -0.09387170 0.25650943
vn -0.85992418 -0.09384779 0.50172004
vn -0.52670241 -0.79703179 0.29550787
vn -0.61199832 -0.79085563 0.00233015
vn -0.58713195 -0.79576484 -0.14843986
vn -0.51173667 -0.80708961 -0.29450286
vn -0.44950779 -0.77636233 -0.44181929
vn -0.32227253 -0.77158865 -0.54844451
vn -0.04274713 -0.73893129 -0.67242341
vn 0.71717902 -0.16257028 -0.67766153
vn 0.11144697 -0.76731138 0.63151629
vn 0.37794320 -0.80341195 0.46009584
vn 0.46388819 -0.81234782 0.35341020
vn 0.52009005 -0.82206136 0.23177891
vn 0.55240124 -0.83356035 0.00547861
vn 0.54571456 -0.83091396 -0.10852470
vn 0.51928927 -0.82269189 -0.23133678
vn 0.46274985 -0.81339832 -0.35248511
vn 0.27940010 -0.79459887 -0.53902526
vn 0.11528523 -0.76906342 -0.62868973
vn 0.50709077 -0.28297298 0.81411623
vn -0.09870919 -0.81081836 0.57691428
vn 0.60198629 -0.37162794 0.70675680
vn 0.48987161 -0.77842129 0.39253801
vn 0.45576232 -0.80348496 -0.38300472
vn 0.53597306 -0.00064796 0.84423483
vn 0.74999979 -0.00001692 -0.66143806
vn -0.08887046 -0.75378188 -0.65108749
vn 0.53816140 -0.20968982 -0.81634091
vn 0.58732250 -0.28336372 -0.75812748
vn 0.59156207 -0.10861598 -0.79890982
vn 0.70832879 -0.00002568 0.70588265
vn 0.53595572 -0.00005109 -0.84424609
vn 0.68735835 -0.16225797 0.70796247
vn 0.47658679 -0.77328805 0.41819926
vn 0.46865133 -0.77597489 -0.42217165
vn 0.45353399 0.80396632 -0.38463629
vn 0.48984366 0.77804392 0.39332028
vn 0.60258086 0.37180943 0.70615441
vn 0.50596016 0.28390244 0.81449600
vn 0.59111640 0.10824478 0.79928998
vn 0.53814461 0.20994557 -0.81628624
vn 0.58775967 0.28299747 -0.75792546
vn 0.46876630 0.77554256 -0.42283792
vn 0.46781598 0.77385229 0.42696702
vn 0.69280543 0.15625190 0.70399288
vn -0.06363341 0.73798225 0.67181320
vn -0.09459334 0.80171808 0.59016965
vn -0.15200320 0.07918647 0.98520279
vn -0.42787832 0.79838028 0.42368511
vn -0.29583575 0.80383920 0.51606565
vn -0.70986644 0.08897721 0.69869357
vn -0.70668882 -0.11713899 0.69776025
vn -0.41379323 -0.81416785 0.40731545
vn -0.58560873 -0.79675646 0.14913600
vn -0.06671436 -0.80884552 -0.58422438
vn 0.27222452 -0.79459381 0.54269189
vn 0.55273998 -0.82697980 0.10287330
vn 0.37510076 -0.78939051 -0.48596506
vn -0.05430633 -0.74585056 0.66389590
vn -0.14761541 -0.09152931 0.98480053
vn -0.49892599 0.10451083 0.86031991
vn -0.49587800 -0.12687314 0.85907405
vn -0.09757976 -0.80920280 0.57936950
vn -0.28911416 -0.81643463 0.49984747
f 1//1 2//2 3//3
f 4//4 5//5 6//6
f 7//7 8//8 5//5
f 9//9 10//10 8//8
f 11//11 12//12 10//10
f 13//13 14//14 12//12
f 15//15 16//16 17//17
f 18//18 15//15 17//17
f 19//19 18//18 20//20
f 21//21 22//22 19//19
f 23//23 24//24 22//22
f 25//25 26//26 24//24
f 27//27 28//28 26//26
f 29//29 30//30 28//28
f 31//31 32//32 30//30
f 32//32 33//33 34//34
f 34//34 35//35 1//1
f 1//1 35//35 2//2
f 36//36 37//37 14//14
f 38//38 12//12 14//14
f 12//12 38//38 39//39
f 39//39 10//10 12//12
f 10//10 39//39 40//40
f 40//40 8//8 10//10
f 8//8 40//40 41//41
f 42//42 8//8 41//41
f 8//8 42//42 5//5
f 1//1 43//43 34//34
f 43//43 1//1 3//3
f 34//34 44//44 32//32
f 44//44 34//34 43//43
f 44//44 30//30 32//32
f 30//30 44//44 45//45
f 45//45 28//28 30//30
f 28//28 45//45 46//46
f 28//28 47//47 26//26
f 47//47 28//28 46//46
f 47//47 24//24 26//26
f 24//24 47//47 48//48
f 24//24 49//49 22//22
f 49//49 24//24 48//48
f 49//49 19//19 22//22
f 19//19 49//49 50//50
f 51//51 19//19 50//50
f 19//19 51//51 18//18
f 52//52 18//18 51//51
f 18//18 52//52 15//15
f 52//52 53//53 15//15
f 54//54 5//5 42//42
f 5//5 54//54 6//6
f 6//6 55//55 56//56
f 3//3 2//2 57//57
f 15//15 53//53 16//16
f 6//6 56//56 58//58
f 4//4 6//6 58//58
f 7//7 5//5 4//4
f 9//9 8//8 7//7
f 11//11 10//10 9//9
f 13//13 12//12 11//11
f 36//36 14//14 13//13
f 59//59 37//37 36//36
f 17//17 16//16 60//60
f 18//18 17//17 20//20
f 19//19 20//20 61//61
f 21//21 19//19 61//61
f 23//23 22//22 21//21
f 25//25 24//24 23//23
f 27//27 26//26 25//25
f 62//62 28//28 27//27
f 29//29 28//28 62//62
f 31//31 30//30 29//29
f 33//33 32//32 31//31
f 33//33 63//63 34//34
f 34//34 63//63 35//35
f 35//35 64//64 2//2
f 59//59 65//65 37//37
f 66//66 14//14 37//37
f 14//14 66//66 38//38
f 67//67 68//68 66//66
f 66//66 69//69 38//38
f 38//38 70//70 39//39
f 39//39 71//71 40//40
f 40//40 72//72 41//41
f 41//41 73//73 42//42
f 73//73 54//54 42//42
f 54//54 74//74 75//75
f 3//3 57//57 76//76
f 43//43 3//3 76//76
f 44//44 43//43 77//77
f 44//44 78//78 45//45
f 45//45 79//79 46//46
f 47//47 46//46 80//80
f 47//47 81//81 48//48
f 49//49 48//48 82//82
f 49//49 83//83 50//50
f 50//50 84//84 51//51
f 51//51 85//85 52//52
f 52//52 85//85 53//53
f 86//86 87//87 57//57
f 87//87 86//86 88//88
f 87//87 88//88 89//89
f 74//74 90//90 75//75
f 91//91 75//75 92//92
f 86//86 75//75 91//91
f 88//88 75//75 86//86
f 89//89 75//75 88//88
f 75//75 89//89 90//90
f 93//93 94//94 53//53
f 94//94 93//93 95//95
f 53//53 94//94 96//96
f 97//97 96//96 98//98
f 99//99 96//96 97//97
f 99//99 94//94 96//96
f 99//99 95//95 94//94
f 100//100 95//95 99//99
f 95//95 100//100 101//101
f 54//54 92//92 6//6
f 92//92 54//54 75//75
f 6//6 92//92 55//55
f 56//56 55//55 102//102
f 64//64 103//103 104//104
f 64//64 105//105 2//2
f 105//105 64//64 104//104
f 2//2 105//105 106//106
f 2//2 91//91 57//57
f 91//91 2//2 106//106
f 57//57 91//91 86//86
f 104//104 102//102 103//103
f 104//104 55//55 102//102
f 105//105 55//55 104//104
f 106//106 55//55 105//105
f 91//91 55//55 106//106
f 55//55 91//91 92//92
f 53//53 98//98 16//16
f 98//98 53//53 96//96
f 16//16 98//98 107//107
f 107//107 60//60 16//16
f 60//60 107//107 108//108
f 60//60 108//108 109//109
f 110//110 108//108 109//109
f 111//111 108//108 110//110
f 111//111 107//107 108//108
f 97//97 107//107 111//111
f 107//107 97//97 98//98
f 112//112 110//110 111//111
f 113//113 112//112 114//114
f 33//33 58//58 63//63
f 33//33 4//4 58//58
f 33//33 7//7 4//4
f 31//31 7//7 33//33
f 31//31 9//9 7//7
f 29//29 9//9 31//31
f 29//29 11//11 9//9
f 62//62 11//11 29//29
f 62//62 13//13 11//11
f 27//27 13//13 62//62
f 25//25 13//13 27//27
f 25//25 36//36 13//13
f 23//23 36//36 25//25
f 23//23 59//59 36//36
f 21//21 59//59 23//23
f 21//21 115//115 59//59
f 21//21 116//116 115//115
f 61//61 116//116 21//21
f 61//61 113//113 116//116
f 113//113 61//61 20//20
f 35//35 103//103 64//64
f 63//63 103//103 35//35
f 58//58 103//103 63//63
f 58//58 102//102 103//103
f 102//102 58//58 56//56
f 113//113 110//110 112//112
f 20//20 110//110 113//113
f 20//20 109//109 110//110
f 17//17 109//109 20//20
f 109//109 17//17 60//60
f 59//59 115//115 117//117
f 118//118 68//68 67//67
f 59//59 117//117 65//65
f 67//67 37//37 65//65
f 37//37 67//67 66//66
f 118//118 119//119 68//68
f 66//66 68//68 120//120
f 66//66 120//120 69//69
f 38//38 69//69 70//70
f 39//39 70//70 71//71
f 40//40 71//71 72//72
f 72//72 73//73 41//41
f 73//73 121//121 54//54
f 54//54 121//121 74//74
f 90//90 87//87 89//89
f 87//87 90//90 74//74
f 76//76 57//57 87//87
f 43//43 76//76 122//122
f 77//77 43//43 122//122
f 44//44 77//77 78//78
f 45//45 78//78 79//79
f 46//46 79//79 123//123
f 46//46 123//123 80//80
f 47//47 80//80 81//81
f 48//48 81//81 82//82
f 49//49 82//82 83//83
f 50//50 83//83 124//124
f 50//50 124//124 84//84
f 51//51 84//84 85//85
f 85//85 93//93 53//53
f 93//93 101//101 95//95
f 125//125 99//99 100//100
f 126//126 99//99 125//125
f 114//114 112//112 111//111
f 116//116 113//113 114//114
f 115//115 116//116 127//127
f 115//115 127//127 117//117
f 118//118 65//65 117//117
f 65//65 118//118 67//67
f 119//119 118//118 128//128
f 129//129 126//126 125//125
f 100//100 129//129 125//125
f 100//100 84//84 129//129
f 101//101 84//84 100//100
f 93//93 84//84 101//101
f 84//84 93//93 85//85
f 87//87 122//122 76//76
f 87//87 121//121 122//122
f 121//121 87//87 74//74
f 121//121 77//77 122//122
f 73//73 77//77 121//121
f 72//72 77//77 73//73
f 72//72 78//78 77//77
f 71//71 78//78 72//72
f 71//71 79//79 78//78
f 70//70 79//79 71//71
f 70//70 123//123 79//79
f 70//70 80//80 123//123
f 69//69 80//80 70//70
f 69//69 81//81 80//80
f 120//120 81//81 69//69
f 120//120 82//82 81//81
f 68//68 82//82 120//120
f 68//68 83//83 82//82
f 119//119 83//83 68//68
f 130//130 83//83 119//119
f 130//130 124//124 83//83
f 129//129 124//124 130//130
f 124//124 129//129 84//84
f 114//114 97//97 126//126
f 97//97 114//114 111//111
f 126//126 97//97 99//99
f 116//116 114//114 127//127
f 127//127 118//118 117//117
f 118//118 127//127 128//128
f 119//119 128//128 130//130
f 130//130 126//126 129//129
f 114//114 128//128 127//127
f 128//128 114//114 126//126
f 130//130 128//128 126//126