# https://github.com/mikedh/trimesh
v -0.08013500 0.02814300 0.02060700
v -0.06607200 0.02725700 0.03591200
v -0.07643300 0.03154900 0.02385800
v -0.08520700 0.02336400 0.01617700
v -0.08456000 0.01600200 0.01844700
v -0.09030900 -0.00011200 0.01571300
v -0.07151600 -0.00011200 0.03591200
v -0.09118300 -0.00256200 0.01425000
v -0.09094200 -0.00853300 0.01323100
v -0.08638300 -0.01714600 0.01629000
v -0.08160100 -0.02258300 0.02026800
v -0.06607200 -0.02748000 0.03591200
v -0.07879400 -0.03126600 0.02142800
v -0.07832900 -0.03255800 0.02165200
v -0.06373200 0.05660000 0.02017900
v -0.05056800 0.05045900 0.03591200
v -0.06017100 0.06006200 0.02131500
v -0.06808900 0.05149900 0.01931500
v -0.07194000 0.04254700 0.02125500
v -0.07446100 0.03540900 0.02330500
v -0.07573500 0.03219100 0.02410300
v -0.03885600 -0.00011200 0.03342000
v -0.03589800 0.01475900 0.03342000
v -0.05056800 -0.05068300 0.03591200
v -0.06392400 -0.06057400 0.01772000
v -0.06207600 -0.06219000 0.01842000
v -0.06807600 -0.05335300 0.01833300
v -0.07120500 -0.04538700 0.02033300
v -0.07642200 -0.03785600 0.02016300
v -0.03589800 -0.01498200 0.03342000
v -0.03681200 0.07668500 0.02039100
v -0.02736600 0.06596300 0.03591200
v -0.03257800 0.07854600 0.02127300
v -0.04910200 0.06809700 0.02073300
v -0.05731400 0.06284000 0.02052400
v -0.02747500 0.02736600 0.03342000
v -0.01888500 0.00771200 0.00633200
v -0.02044100 -0.00011200 0.00633200
v -0.02736600 -0.06618600 0.03591200
v -0.03470400 -0.08015700 0.01871400
v -0.03325900 -0.08041100 0.01936300
v -0.04363500 -0.07629400 0.01679600
v -0.05046300 -0.07234700 0.01623600
v -0.02747500 -0.02758900 0.03342000
v -0.01888500 -0.00793500 0.00633200
v 0.00000300 0.07140700 0.03591200
v -0.02253000 0.07937200 0.02253400
v -0.01803100 0.08096000 0.02178800
v 0.00000300 0.08496100 0.02134400
v -0.01564800 0.08281600 0.02030300
v -0.00976200 0.08481200 0.01941600
v -0.01012600 0.08514900 0.01897600
v -0.02888000 0.08017100 0.02031600
v -0.01486800 0.03578900 0.03342000
v -0.01445300 0.01434400 0.00633200
v -0.02528900 -0.00011200 -0.00931100
v -0.02784300 0.01142300 -0.02495400
v 0.00000300 -0.08273600 0.02397500
v 0.00000300 -0.07163000 0.03591200
v -0.00125800 -0.08267900 0.02376600
v -0.00996200 -0.08443700 0.02001600
v -0.01844300 -0.08302000 0.01972600
v -0.01486800 -0.03601200 0.03342000
v -0.01445300 -0.01456700 0.00633200
v -0.02558800 -0.01071200 -0.01707800
v 0.03132100 0.07549700 0.02482000
v 0.02737100 0.06596300 0.03591200
v 0.01920000 0.08035000 0.02219600
v 0.00426900 0.08502600 0.02036200
v 0.00000300 0.03874700 0.03342000
v -0.00782100 0.01877600 0.00633200
v -0.02131000 0.02120100 -0.02495400
v 0.02737100 -0.06618600 0.03591200
v 0.03163200 -0.07647100 0.02394700
v 0.03079800 -0.07681300 0.02375700
v 0.02115600 -0.08142400 0.02086200
v 0.01526900 -0.08342100 0.01997500
v 0.00000300 -0.03897000 0.03342000
v -0.00782100 -0.01899900 0.00633200
v -0.01788200 -0.01799600 -0.00931100
v 0.05326900 0.06237000 0.02341700
v 0.05057400 0.05045900 0.03591200
v 0.05727100 0.05715700 0.02573100
v 0.04705700 0.06845300 0.02165700
v 0.03596700 0.07363600 0.02368600
v 0.01487300 0.03578900 0.03342000
v 0.00000300 0.02033200 0.00633200
v -0.01153200 0.02773400 -0.02495400
v 0.05057400 -0.05068300 0.03591200
v 0.04415300 -0.06853400 0.02355500
v 0.05787900 -0.05798800 0.02480800
v 0.03839400 -0.07369200 0.02236100
v 0.01487300 -0.03601200 0.03342000
v 0.00000300 -0.02055500 0.00633200
v -0.01153200 -0.02795800 -0.02495400
v 0.07088600 0.03458000 0.02707100
v 0.06607700 0.02725700 0.03591200
v 0.07375600 0.03043800 0.02697800
v 0.06401200 0.04837700 0.02493500
v 0.02748000 0.02736600 0.03342000
v 0.00782600 0.01877600 0.00633200
v 0.00000300 0.03002900 -0.02495400
v 0.07496600 -0.03116200 0.02557100
v 0.07290600 -0.04169100 0.02103700
v 0.07413800 -0.03741900 0.02251600
v 0.07023000 -0.04496500 0.02148200
v 0.06607700 -0.02748000 0.03591200
v 0.06455600 -0.05223100 0.02222900
v 0.05913300 -0.05702300 0.02425200
v 0.02748000 -0.02758900 0.03342000
v 0.00782600 -0.01899900 0.00633200
v 0.00000300 -0.03025200 -0.02495400
v 0.07610300 0.02705000 0.02518000
v 0.07635800 0.02072700 0.02625700
v 0.08057000 0.00330400 0.02545500
v 0.07152100 -0.00011200 0.03591200
v 0.08020500 -0.00011200 0.02657800
v 0.03590300 0.01475900 0.03342000
v 0.01445800 0.01434400 0.00633200
v 0.01153700 0.02773400 -0.02495400
v 0.07955100 -0.00623700 0.02597200
v 0.08063400 -0.01569400 0.02278600
v 0.08011700 -0.02028900 0.02235900
v 0.07811300 -0.02283200 0.02396800
v 0.07521400 -0.02928300 0.02570600
v 0.03590300 -0.01498200 0.03342000
v 0.01445800 -0.01456700 0.00633200
v 0.01153700 -0.02795800 -0.02495400
v 0.00000300 -0.03787900 -0.02793600
v 0.03886100 -0.00011200 0.03342000
v 0.01889000 0.00771200 0.00633200
v 0.02131500 0.02120100 -0.02495400
v 0.01889000 -0.00793500 0.00633200
v 0.02131500 -0.02142400 -0.02495400
v 0.01737400 -0.04205000 -0.03091700
v 0.02044600 -0.00011200 0.00633200
v 0.02784900 0.01142300 -0.02495400
v 0.02784900 -0.01164600 -0.02495400
v 0.02494800 -0.02505700 -0.02696300
v 0.03014300 -0.00011200 -0.02495400
v 0.03259600 0.01338900 -0.02696300
v 0.03681100 -0.01535800 -0.02874700
v 0.03984400 -0.00011200 -0.02874700
v -0.03013800 -0.00011200 -0.02495400
v -0.08668500 0.03579500 0.01193100
v -0.09382700 -0.00011200 0.01193100
v -0.02784300 -0.01164600 -0.02495400
v -0.08668500 -0.03601800 0.01193100
v -0.06634500 0.06623600 0.01193100
v -0.05602800 0.02309700 -0.03688000
v -0.06064400 -0.00011200 -0.03688000
v -0.08898900 -0.00011200 -0.02046400
v -0.08221500 0.03394400 -0.02046400
v -0.02131000 -0.02142400 -0.02495400
v -0.05602800 -0.02332000 -0.03688000
v -0.08221500 -0.03416700 -0.02046400
v -0.06634500 -0.06645900 0.01193100
v -0.03590400 0.08657500 0.01193100
v -0.04288100 0.04277200 -0.03688000
v -0.06292400 0.06281500 -0.02046400
v -0.04288100 -0.04299500 -0.03688000
v -0.06292400 -0.06303800 -0.02046400
v -0.03590400 -0.08679900 0.01193100
v 0.00000300 0.09371800 0.01193100
v -0.02320600 0.05591900 -0.03688000
v -0.03405300 0.08210600 -0.02046400
v -0.02320600 -0.05614200 -0.03688000
v -0.03405300 -0.08232900 -0.02046400
v 0.00000300 -0.09394100 0.01193100
v 0.03590900 0.08657500 0.01193100
v 0.00000300 0.06053500 -0.03688000
v 0.00000300 0.08888000 -0.02046400
v 0.00000300 -0.06075900 -0.03688000
v 0.00000300 -0.08910300 -0.02046400
v 0.03590900 -0.08679900 0.01193100
v 0.06635000 0.06623600 0.01193100
v 0.02321100 0.05591900 -0.03688000
v 0.03405800 0.08210600 -0.02046400
v 0.02321100 -0.05614200 -0.03688000
v 0.03405800 -0.08232900 -0.02046400
v 0.06635000 -0.06645900 0.01193100
v 0.08669000 0.03579500 0.01193100
v 0.04288600 0.04277200 -0.03688000
v 0.06292900 0.06281500 -0.02046400
v 0.04288600 -0.04299500 -0.03688000
v 0.06292900 -0.06303800 -0.02046400
v 0.08669000 -0.03601800 0.01193100
v 0.09383200 -0.00011200 0.01193100
v 0.05603300 0.02309700 -0.03688000
v 0.08222000 0.03394400 -0.02046400
v 0.05603300 -0.02332000 -0.03688000
v 0.08222000 -0.03416700 -0.02046400
v 0.06065000 -0.00011200 -0.03688000
v 0.08899400 -0.00011200 -0.02046400
vn -0.72449826 0.14409167 0.67404737
vn -0.37807216 0.15660581 0.91243414
vn -0.67638922 0.28018568 0.68117076
vn -0.72392951 0.14436455 0.67459984
vn -0.72448915 0.14412685 0.67404964
vn -0.73215823 0.00003827 0.68113459
vn -0.40922244 -0.00000427 0.91243465
vn -0.72455929 -0.14416341 0.67396643
vn -0.72443801 -0.14413416 0.67410305
vn -0.72470728 -0.14429422 0.67377930
vn -0.72453562 -0.14415264 0.67399418
vn -0.37807246 -0.15660521 0.91243412
vn -0.72425723 -0.14383217 0.67436175
vn -0.67638395 -0.28014329 0.68119343
vn -0.61414140 0.41043739 0.67407084
vn -0.28935000 0.28935912 0.91244062
vn -0.51768364 0.51771555 0.68115656
vn -0.61429256 0.41037464 0.67397129
vn -0.61392649 0.41039927 0.67428978
vn -0.61434489 0.41040317 0.67390623
vn -0.61416121 0.41040352 0.67407341
vn 0.45842418 0.00000308 0.88873352
vn 0.42353362 -0.17542778 0.88873189
vn -0.28936177 -0.28936321 0.91243559
vn -0.61419770 -0.41038752 0.67404990
vn -0.51770380 -0.51769276 0.68115856
vn -0.61408869 -0.41041575 0.67413203
vn -0.61423443 -0.41040534 0.67400558
vn -0.60919415 -0.40998963 0.67881587
vn 0.42353383 0.17543064 0.88873122
vn -0.41041378 0.61420910 0.67402353
vn -0.15661203 0.37806771 0.91243492
vn -0.28017187 0.67642960 0.68113635
vn -0.41037106 0.61419057 0.67406642
vn -0.41093640 0.61446528 0.67347138
vn 0.32414276 -0.32414153 0.88874279
vn 0.91252430 -0.37799900 0.15625670
vn 0.98771630 0.00001277 0.15625781
vn -0.15660032 -0.37807141 0.91243540
vn -0.41052817 -0.61413301 0.67402320
vn -0.28031584 -0.67635236 0.68115381
vn -0.41035281 -0.61419366 0.67407471
vn -0.41050393 -0.61428473 0.67389969
vn 0.32414702 0.32414185 0.88874111
vn 0.91252096 0.37800855 0.15625312
vn -0.00000041 0.40921938 0.91243603
vn -0.14410771 0.72463912 0.67389251
vn -0.14409560 0.72451509 0.67402844
vn -0.00000879 0.73214540 0.68114838
vn -0.14414994 0.72450286 0.67402998
vn -0.14412855 0.72448632 0.67405233
vn -0.14413507 0.72450045 0.67403574
vn -0.14293232 0.72317398 0.67571425
vn 0.17542674 -0.42353338 0.88873221
vn 0.69842716 -0.69841873 0.15623946
vn 0.95517521 0.00000317 -0.29604108
vn 0.65132049 -0.26979219 -0.70922055
vn -0.00005825 -0.73213706 0.68115734
vn 0.00000159 -0.40922106 0.91243527
vn -0.14442324 -0.72424001 0.67425391
vn -0.14410231 -0.72449077 0.67405315
vn -0.14409671 -0.72450179 0.67404251
vn 0.17542404 0.42353729 0.88873088
vn 0.69843728 0.69841017 0.15623251
vn 0.88246850 0.36552921 -0.29603673
vn 0.28024159 0.67640084 0.68113622
vn 0.15660137 0.37806949 0.91243601
vn 0.14412849 0.72450340 0.67403398
vn 0.14408224 0.72465441 0.67388151
vn -0.00000379 -0.45842342 0.88873391
vn 0.37799404 -0.91252758 0.15624955
vn 0.49850009 -0.49849126 -0.70922783
vn 0.15658692 -0.37805911 0.91244279
vn 0.28018441 -0.67641672 0.68114398
vn 0.14276126 -0.72336182 0.67554933
vn 0.14397880 -0.72437920 0.67419944
vn 0.14419741 -0.72450535 0.67401714
vn -0.00000212 0.45842296 0.88873415
vn 0.37798372 0.91253354 0.15623971
vn 0.67543066 0.67538022 -0.29606585
vn 0.41040251 0.61418727 0.67405028
vn 0.28937692 0.28936888 0.91242898
vn 0.51766598 0.51772619 0.68116190
vn 0.41039054 0.61419555 0.67405002
vn 0.41046538 0.61420619 0.67399475
vn -0.17542763 -0.42353790 0.88872988
vn -0.00000948 -0.98771803 0.15624692
vn 0.26978900 -0.65132894 -0.70921401
vn 0.28937018 -0.28936703 0.91243171
vn 0.41037546 -0.61421757 0.67403914
vn 0.51780252 -0.51765581 0.68111160
vn 0.41044757 -0.61420472 0.67400694
vn -0.17542991 0.42353366 0.88873145
vn -0.00000970 0.98771920 0.15623952
vn 0.26977953 0.65131899 -0.70922674
vn 0.61420187 0.41039993 0.67403855
vn 0.37808078 0.15660343 0.91243098
vn 0.67638840 0.28022175 0.68115673
vn 0.61418657 0.41039337 0.67405648
vn -0.32414684 -0.32414191 0.88874116
vn -0.37800564 -0.91252161 0.15625636
vn 0.00000070 -0.70497701 -0.70923016
vn 0.67639692 -0.28016500 0.68117162
vn 0.61419555 -0.41041975 0.67403224
vn 0.61401615 -0.41045165 0.67417624
vn 0.61421511 -0.41038582 0.67403507
vn 0.37807855 -0.15659404 0.91243351
vn 0.61418686 -0.41039865 0.67405299
vn 0.61435645 -0.41031687 0.67394823
vn -0.32414146 0.32414114 0.88874340
vn -0.37801037 0.91252257 0.15623931
vn -0.00000015 0.70500002 -0.70920728
vn 0.72450190 0.14408210 0.67404550
vn 0.72450131 0.14409110 0.67404421
vn 0.72449362 0.14413893 0.67404226
vn 0.40922673 0.00000198 0.91243273
vn 0.73213959 0.00006424 0.68115462
vn -0.42353277 -0.17542596 0.88873265
vn -0.69842423 -0.69841939 0.15624966
vn -0.26980308 -0.65132135 -0.70921562
vn 0.72449292 -0.14409149 0.67405315
vn 0.72449332 -0.14414172 0.67404198
vn 0.72445663 -0.14416331 0.67407680
vn 0.72420800 -0.14385709 0.67440930
vn 0.72447342 -0.14402265 0.67408882
vn -0.42353372 0.17543018 0.88873136
vn -0.69842470 0.69842232 0.15623443
vn -0.26979015 0.65131291 -0.70922829
vn -0.00001321 0.36410667 -0.93135725
vn -0.45842297 0.00000211 0.88873415
vn -0.91252731 -0.37799858 0.15624013
vn -0.49848833 -0.49851015 -0.70922282
vn -0.91252176 0.37801120 0.15624200
vn -0.49852677 0.49850928 -0.70919642
vn -0.13934433 0.33638788 -0.93135726
vn -0.98771911 0.00001044 0.15624008
vn -0.65133412 -0.26979466 -0.70920709
vn -0.65133662 0.26980056 -0.70920256
vn -0.25750396 0.25746707 -0.93134441
vn -0.70500943 0.00000833 -0.70919793
vn -0.33640948 -0.13933487 -0.93135088
vn -0.33639541 0.13934283 -0.93135477
vn -0.36410569 0.00000924 -0.93135764
vn 0.70496703 -0.00000120 -0.70924007
vn -0.88643022 0.36716528 0.28183529
vn -0.95947731 -0.00000117 0.28178590
vn 0.65133220 0.26980661 -0.70920431
vn -0.88643209 -0.36716179 0.28183394
vn -0.67842956 0.67845046 0.28184802
vn -0.11956837 0.04952361 -0.99159004
vn -0.12940491 -0.00000052 -0.99159184
vn -0.84266831 -0.00000309 -0.53843301
vn -0.77852538 0.32247421 -0.53843162
vn 0.49852579 0.49849125 -0.70920978
vn -0.11956694 -0.04952369 -0.99159021
vn -0.77852495 -0.32247580 -0.53843129
vn -0.67844113 -0.67844246 0.28183944
vn -0.36717101 0.88643060 0.28182662
vn -0.09150043 0.09150443 -0.99159196
vn -0.59585631 0.59585737 -0.53843221
vn -0.09150043 -0.09150443 -0.99159196
vn -0.59585625 -0.59585753 -0.53843211
vn -0.36716853 -0.88643120 0.28182795
vn -0.00000106 0.95946637 0.28182315
vn -0.04952911 0.11956661 -0.99158998
vn -0.32247378 0.77853199 -0.53842233
vn -0.04952557 -0.11956206 -0.99159071
vn -0.32247521 -0.77852528 -0.53843117
vn -0.00000006 -0.95946468 0.28182891
vn 0.36718033 0.88642490 0.28183240
vn 0.00000345 0.12940516 -0.99159180
vn -0.00000037 0.84267064 -0.53842937
vn -0.00000454 -0.12942787 -0.99158884
vn 0.00000050 -0.84267140 -0.53842818
vn 0.36717338 -0.88642918 0.28182799
vn 0.67843328 0.67844929 0.28184189
vn 0.04952639 0.11956607 -0.99159018
vn 0.32248180 0.77852813 -0.53842310
vn 0.04953004 -0.11956293 -0.99159038
vn 0.32247901 -0.77852379 -0.53843105
vn 0.67844352 -0.67844359 0.28183095
vn 0.88642838 0.36716565 0.28184056
vn 0.09150045 0.09150494 -0.99159191
vn 0.59585478 0.59586120 -0.53842967
vn 0.09150484 -0.09151011 -0.99159103
vn 0.59585631 -0.59585737 -0.53843221
vn 0.88643037 -0.36716975 0.28182899
vn 0.95946341 0.00000113 0.28183322
vn 0.11956537 0.04953007 -0.99159008
vn 0.77852569 0.32247634 -0.53842991
vn 0.11957037 -0.04953043 -0.99158946
vn 0.77852526 -0.32247793 -0.53842958
vn 0.12943476 -0.00000052 -0.99158794
vn 0.84267203 -0.00000309 -0.53842720
f 1//1 2//2 3//3
f 4//4 2//2 1//1
f 5//5 2//2 4//4
f 6//6 2//2 5//5
f 2//2 6//6 7//7
f 8//8 7//7 6//6
f 9//9 7//7 8//8
f 10//10 7//7 9//9
f 11//11 7//7 10//10
f 11//11 12//12 7//7
f 13//13 12//12 11//11
f 12//12 13//13 14//14
f 15//15 16//16 17//17
f 15//15 2//2 16//16
f 18//18 2//2 15//15
f 19//19 2//2 18//18
f 20//20 2//2 19//19
f 21//21 2//2 20//20
f 2//2 21//21 3//3
f 2//2 22//22 23//23
f 22//22 2//2 7//7
f 24//24 25//25 26//26
f 12//12 25//25 24//24
f 12//12 27//27 25//25
f 12//12 28//28 27//27
f 12//12 29//29 28//28
f 29//29 12//12 14//14
f 22//22 12//12 30//30
f 12//12 22//22 7//7
f 31//31 32//32 33//33
f 34//34 32//32 31//31
f 34//34 16//16 32//32
f 35//35 16//16 34//34
f 16//16 35//35 17//17
f 16//16 23//23 36//36
f 23//23 16//16 2//2
f 22//22 37//37 23//23
f 37//37 22//22 38//38
f 39//39 40//40 41//41
f 39//39 42//42 40//40
f 39//39 43//43 42//42
f 24//24 43//43 39//39
f 43//43 24//24 26//26
f 30//30 24//24 44//44
f 24//24 30//30 12//12
f 22//22 45//45 38//38
f 45//45 22//22 30//30
f 46//46 47//47 32//32
f 46//46 48//48 47//47
f 49//49 48//48 46//46
f 49//49 50//50 48//48
f 51//51 50//50 49//49
f 50//50 51//51 52//52
f 47//47 33//33 32//32
f 33//33 47//47 53//53
f 32//32 36//36 54//54
f 36//36 32//32 16//16
f 23//23 55//55 36//36
f 55//55 23//23 37//37
f 37//37 56//56 57//57
f 56//56 37//37 38//38
f 39//39 58//58 59//59
f 39//39 60//60 58//58
f 39//39 61//61 60//60
f 39//39 62//62 61//61
f 62//62 39//39 41//41
f 44//44 39//39 63//63
f 39//39 44//44 24//24
f 30//30 64//64 45//45
f 64//64 30//30 44//44
f 45//45 56//56 38//38
f 56//56 45//45 65//65
f 66//66 46//46 67//67
f 68//68 46//46 66//66
f 68//68 49//49 46//46
f 49//49 68//68 69//69
f 46//46 54//54 70//70
f 54//54 46//46 32//32
f 55//55 54//54 36//36
f 54//54 55//55 71//71
f 55//55 57//57 72//72
f 57//57 55//55 37//37
f 58//58 73//73 59//59
f 58//58 74//74 73//73
f 58//58 75//75 74//74
f 58//58 76//76 75//75
f 76//76 58//58 77//77
f 63//63 59//59 78//78
f 59//59 63//63 39//39
f 79//79 44//44 63//63
f 44//44 79//79 64//64
f 64//64 65//65 45//45
f 65//65 64//64 80//80
f 81//81 82//82 83//83
f 84//84 82//82 81//81
f 85//85 82//82 84//84
f 66//66 82//82 85//85
f 82//82 66//66 67//67
f 46//46 86//86 67//67
f 86//86 46//46 70//70
f 71//71 70//70 54//54
f 70//70 71//71 87//87
f 72//72 71//71 55//55
f 71//71 72//72 88//88
f 89//89 90//90 91//91
f 89//89 92//92 90//90
f 89//89 74//74 92//92
f 74//74 89//89 73//73
f 78//78 73//73 93//93
f 73//73 78//78 59//59
f 94//94 63//63 78//78
f 63//63 94//94 79//79
f 79//79 80//80 64//64
f 80//80 79//79 95//95
f 96//96 97//97 98//98
f 99//99 97//97 96//96
f 83//83 97//97 99//99
f 97//97 83//83 82//82
f 67//67 100//100 82//82
f 100//100 67//67 86//86
f 87//87 86//86 70//70
f 86//86 87//87 101//101
f 88//88 87//87 71//71
f 87//87 88//88 102//102
f 103//103 104//104 105//105
f 103//103 106//106 104//104
f 107//107 106//106 103//103
f 107//107 108//108 106//106
f 107//107 109//109 108//108
f 107//107 91//91 109//109
f 91//91 107//107 89//89
f 110//110 73//73 89//89
f 73//73 110//110 93//93
f 111//111 78//78 93//93
f 78//78 111//111 94//94
f 112//112 79//79 94//94
f 79//79 112//112 95//95
f 97//97 113//113 98//98
f 97//97 114//114 113//113
f 97//97 115//115 114//114
f 116//116 115//115 97//97
f 115//115 116//116 117//117
f 82//82 118//118 97//97
f 118//118 82//82 100//100
f 101//101 100//100 86//86
f 100//100 101//101 119//119
f 102//102 101//101 87//87
f 101//101 102//102 120//120
f 116//116 121//121 117//117
f 116//116 122//122 121//121
f 116//116 123//123 122//122
f 116//116 124//124 123//123
f 107//107 124//124 116//116
f 107//107 125//125 124//124
f 125//125 107//107 103//103
f 126//126 89//89 107//107
f 89//89 126//126 110//110
f 127//127 93//93 110//110
f 93//93 127//127 111//111
f 128//128 94//94 111//111
f 94//94 128//128 112//112
f 112//112 129//129 95//95
f 97//97 130//130 116//116
f 130//130 97//97 118//118
f 119//119 118//118 100//100
f 118//118 119//119 131//131
f 120//120 119//119 101//101
f 119//119 120//120 132//132
f 130//130 107//107 116//116
f 107//107 130//130 126//126
f 127//127 126//126 133//133
f 126//126 127//127 110//110
f 134//134 111//111 127//127
f 111//111 134//134 128//128
f 135//135 112//112 128//128
f 112//112 135//135 129//129
f 136//136 118//118 131//131
f 118//118 136//136 130//130
f 137//137 119//119 132//132
f 119//119 137//137 131//131
f 133//133 130//130 136//136
f 130//130 133//133 126//126
f 138//138 127//127 133//133
f 127//127 138//138 134//134
f 135//135 134//134 139//139
f 134//134 135//135 128//128
f 137//137 136//136 131//131
f 136//136 137//137 140//140
f 141//141 137//137 132//132
f 140//140 133//133 136//136
f 133//133 140//140 138//138
f 139//139 138//138 142//142
f 138//138 139//139 134//134
f 140//140 141//141 143//143
f 141//141 140//140 137//137
f 142//142 140//140 143//143
f 140//140 142//142 138//138
f 57//57 56//56 144//144
f 145//145 1//1 3//3
f 145//145 4//4 1//1
f 145//145 5//5 4//4
f 145//145 6//6 5//5
f 6//6 145//145 146//146
f 65//65 144//144 56//56
f 144//144 65//65 147//147
f 146//146 8//8 6//6
f 146//146 9//9 8//8
f 10//10 13//13 11//11
f 10//10 14//14 13//13
f 9//9 14//14 10//10
f 9//9 148//148 14//14
f 148//148 9//9 146//146
f 149//149 15//15 17//17
f 149//149 18//18 15//15
f 149//149 19//19 18//18
f 149//149 20//20 19//19
f 149//149 21//21 20//20
f 149//149 3//3 21//21
f 3//3 149//149 145//145
f 144//144 150//150 57//57
f 150//150 144//144 151//151
f 152//152 145//145 153//153
f 145//145 152//152 146//146
f 80//80 147//147 65//65
f 147//147 80//80 154//154
f 155//155 144//144 147//147
f 144//144 155//155 151//151
f 156//156 146//146 152//152
f 146//146 156//156 148//148
f 25//25 157//157 26//26
f 27//27 157//157 25//25
f 28//28 157//157 27//27
f 29//29 157//157 28//28
f 14//14 157//157 29//29
f 157//157 14//14 148//148
f 158//158 31//31 33//33
f 158//158 34//34 31//31
f 158//158 35//35 34//34
f 158//158 17//17 35//35
f 17//17 158//158 149//149
f 57//57 159//159 72//72
f 159//159 57//57 150//150
f 160//160 145//145 149//149
f 145//145 160//160 153//153
f 151//151 153//153 150//150
f 153//153 151//151 152//152
f 80//80 95//95 154//154
f 161//161 147//147 154//154
f 147//147 161//161 155//155
f 156//156 151//151 155//155
f 151//151 156//156 152//152
f 162//162 148//148 156//156
f 148//148 162//162 157//157
f 40//40 163//163 41//41
f 42//42 163//163 40//40
f 43//43 163//163 42//42
f 26//26 163//163 43//43
f 163//163 26//26 157//157
f 49//49 52//52 51//51
f 52//52 49//49 164//164
f 48//48 53//53 47//47
f 53//53 48//48 50//50
f 52//52 53//53 50//50
f 164//164 53//53 52//52
f 164//164 33//33 53//53
f 33//33 164//164 158//158
f 72//72 165//165 88//88
f 165//165 72//72 159//159
f 166//166 149//149 158//158
f 149//149 166//166 160//160
f 150//150 160//160 159//159
f 160//160 150//150 153//153
f 167//167 154//154 95//95
f 154//154 167//167 161//161
f 162//162 155//155 161//161
f 155//155 162//162 156//156
f 162//162 163//163 157//157
f 163//163 162//162 168//168
f 61//61 58//58 60//60
f 163//163 62//62 41//41
f 163//163 61//61 62//62
f 61//61 169//169 58//58
f 169//169 61//61 163//163
f 68//68 170//170 69//69
f 170//170 68//68 66//66
f 170//170 49//49 69//69
f 49//49 170//170 164//164
f 88//88 171//171 102//102
f 171//171 88//88 165//165
f 172//172 158//158 164//164
f 158//158 172//172 166//166
f 159//159 166//166 165//165
f 166//166 159//159 160//160
f 173//173 95//95 129//129
f 95//95 173//173 167//167
f 168//168 161//161 167//167
f 161//161 168//168 162//162
f 168//168 169//169 163//163
f 169//169 168//168 174//174
f 58//58 169//169 77//77
f 76//76 74//74 75//75
f 169//169 76//76 77//77
f 169//169 74//74 76//76
f 74//74 169//169 175//175
f 176//176 81//81 83//83
f 176//176 84//84 81//81
f 176//176 85//85 84//84
f 170//170 85//85 176//176
f 85//85 170//170 66//66
f 102//102 177//177 120//120
f 177//177 102//102 171//171
f 178//178 164//164 170//170
f 164//164 178//178 172//172
f 165//165 172//172 171//171
f 172//172 165//165 166//166
f 179//179 129//129 135//135
f 129//129 179//179 173//173
f 174//174 167//167 173//173
f 167//167 174//174 168//168
f 174//174 175//175 169//169
f 175//175 174//174 180//180
f 90//90 181//181 91//91
f 92//92 181//181 90//90
f 92//92 175//175 181//181
f 175//175 92//92 74//74
f 182//182 96//96 98//98
f 176//176 96//96 182//182
f 176//176 99//99 96//96
f 99//99 176//176 83//83
f 132//132 177//177 183//183
f 177//177 132//132 120//120
f 184//184 170//170 176//176
f 170//170 184//184 178//178
f 171//171 178//178 177//177
f 178//178 171//171 172//172
f 179//179 139//139 185//185
f 139//139 179//179 135//135
f 180//180 173//173 179//179
f 173//173 180//180 174//174
f 180//180 181//181 175//175
f 181//181 180//180 186//186
f 105//105 187//187 103//103
f 104//104 187//187 105//105
f 106//106 187//187 104//104
f 106//106 181//181 187//187
f 108//108 181//181 106//106
f 109//109 181//181 108//108
f 181//181 109//109 91//91
f 113//113 182//182 98//98
f 114//114 182//182 113//113
f 115//115 182//182 114//114
f 115//115 188//188 182//182
f 188//188 115//115 117//117
f 141//141 183//183 189//189
f 183//183 141//141 132//132
f 182//182 184//184 176//176
f 184//184 182//182 190//190
f 183//183 178//178 184//184
f 178//178 183//183 177//177
f 185//185 142//142 191//191
f 142//142 185//185 139//139
f 180//180 185//185 186//186
f 185//185 180//180 179//179
f 187//187 186//186 192//192
f 186//186 187//187 181//181
f 121//121 188//188 117//117
f 122//122 188//188 121//121
f 123//123 188//188 122//122
f 125//125 123//123 124//124
f 125//125 188//188 123//123
f 103//103 188//188 125//125
f 188//188 103//103 187//187
f 143//143 189//189 193//193
f 189//189 143//143 141//141
f 182//182 194//194 190//190
f 194//194 182//182 188//188
f 189//189 184//184 190//190
f 184//184 189//189 183//183
f 191//191 143//143 193//193
f 143//143 191//191 142//142
f 186//186 191//191 192//192
f 191//191 186//186 185//185
f 188//188 192//192 194//194
f 192//192 188//188 187//187
f 193//193 190//190 194//194
f 190//190 193//193 189//189
f 192//192 193//193 194//194
f 193//193 192//192 191//191