# https://github.com/mikedh/trimesh
v 0.01476868 -0.00352952 -0.02387901
v 0.01715340 -0.00048646 -0.01957232
v 0.01591934 0.01291051 -0.02186887
v 0.01859401 0.00646003 -0.01875099
v 0.01357869 0.01368437 -0.02723930
v 0.01272750 -0.00242617 -0.03084701
v 0.01225146 0.01011993 -0.03317869
v 0.01226762 0.00385528 -0.03528032
v 0.03745585 0.00407359 -0.04136058
v 0.03916824 -0.00181141 -0.02830104
v 0.03736775 -0.00377401 -0.03246892
v 0.03563567 0.00911178 -0.02723044
v 0.03636323 -0.00297557 -0.03705833
v 0.03683894 0.00790289 -0.03901862
v 0.03768720 0.01022861 -0.03356501
v 0.04075764 0.00324477 -0.02661746
vn -0.56859160 -0.73045858 0.37833035
vn -0.31370264 -0.41443991 0.85430101
vn -0.37960713 0.68118664 0.62600575
vn -0.11195126 0.16701259 0.97957833
vn -0.62793550 0.77666632 0.04986421
vn -0.72270420 -0.64749326 -0.24176666
vn -0.74008444 0.50014127 -0.44959286
vn -0.72536471 -0.12629727 -0.67667942
vn 0.48017583 -0.01530511 -0.87703872
vn 0.70978127 -0.61726368 0.33940551
vn 0.52450799 -0.84886031 -0.06578404
vn 0.43893171 0.71229087 0.54770491
vn 0.38167958 -0.73192492 -0.56445249
vn 0.42140859 0.65603018 -0.62613034
vn 0.60456708 0.78577763 -0.13058394
vn 0.86485898 0.02785779 0.50124135
f 16//16 9//9 15//15
f 2//2 16//16 4//4
f 10//10 16//16 2//2
f 2//2 4//4 3//3
f 11//11 6//6 13//13
f 16//16 15//15 12//12
f 12//12 4//4 16//16
f 3//3 4//4 12//12
f 9//9 7//7 14//14
f 14//14 15//15 9//9
f 7//7 9//9 8//8
f 13//13 10//10 11//11
f 9//9 16//16 13//13
f 16//16 10//10 13//13
f 15//15 5//5 3//3
f 1//1 5//5 6//6
f 1//1 2//2 3//3
f 3//3 5//5 1//1
f 1//1 6//6 11//11
f 10//10 2//2 1//1
f 11//11 10//10 1//1
f 7//7 8//8 6//6
f 6//6 5//5 7//7
f 12//12 15//15 3//3
f 7//7 5//5 14//14
f 8//8 9//9 6//6
f 6//6 9//9 13//13
f 15//15 14//14 5//5