# https://github.com/mikedh/trimesh
v -0.00512371 -0.00596782 -0.04581499
v -0.00866214 0.00529881 -0.04861143
v -0.00586534 0.00254894 -0.04604388
v -0.01162077 0.00448181 -0.05305119
v -0.00441574 -0.00199108 -0.04487956
v -0.00853284 -0.00998965 -0.05191830
v -0.01103028 -0.00907273 -0.05575881
v -0.01342202 0.00017794 -0.05712803
v 0.00270876 -0.00665027 -0.06556498
v -0.00958115 -0.00553961 -0.05975650
v 0.00807102 0.00307413 -0.05762347
v 0.00918738 -0.00100783 -0.05459428
v 0.00240752 -0.00093032 -0.06615156
v 0.00389818 0.00339524 -0.06214673
v 0.00513442 -0.00888960 -0.05938193
v 0.00866825 -0.00629771 -0.05494596
vn -0.16884322 -0.51409459 0.84095108
vn -0.42680643 0.72816420 0.53629579
vn -0.09577448 0.44155482 0.89210795
vn -0.75592975 0.65149919 0.06417962
vn -0.00057188 0.01768543 0.99984344
vn -0.41234838 -0.82030427 0.39632023
vn -0.72400745 -0.68395000 -0.08958574
vn -0.92671622 0.23265927 -0.29507071
vn 0.24997944 -0.49752157 -0.83065189
vn -0.56892745 -0.29539564 -0.76750438
vn 0.76865963 0.63530247 -0.07451948
vn 0.93136837 0.16721948 0.32340470
vn 0.17604728 0.26224125 -0.94880814
vn 0.25130298 0.79577664 -0.55098671
vn 0.47638494 -0.85763810 -0.19368600
vn 0.83461024 -0.50328554 0.22389598
f 7//7 6//6 8//8
f 8//8 6//6 4//4
f 6//6 1//1 4//4
f 10//10 7//7 8//8
f 8//8 13//13 10//10
f 5//5 16//16 12//12
f 1//1 16//16 5//5
f 13//13 11//11 9//9
f 14//14 11//11 13//13
f 3//3 5//5 12//12
f 12//12 16//16 11//11
f 9//9 10//10 13//13
f 11//11 16//16 9//9
f 7//7 10//10 9//9
f 6//6 15//15 1//1
f 15//15 16//16 1//1
f 14//14 13//13 8//8
f 12//12 11//11 3//3
f 11//11 14//14 2//2
f 2//2 4//4 1//1
f 3//3 11//11 2//2
f 2//2 5//5 3//3
f 1//1 5//5 2//2
f 15//15 9//9 16//16
f 4//4 14//14 8//8
f 2//2 14//14 4//4
f 9//9 15//15 7//7
f 7//7 15//15 6//6