# https://github.com/mikedh/trimesh
v 0.00599059 -0.00688760 -0.06734071
v 0.00844477 -0.00131702 -0.06831057
v 0.01331395 0.00103199 -0.06040633
v 0.01744551 -0.00520432 -0.07255046
v 0.02405927 -0.00241690 -0.06638490
v 0.00945047 0.00211428 -0.06374395
v 0.01322704 -0.00117449 -0.05690558
v 0.02278983 -0.00528107 -0.06314473
v 0.02419795 -0.00693071 -0.06617309
v 0.01644712 -0.00842263 -0.05959038
v 0.01933818 -0.01050293 -0.06507045
v 0.00925016 -0.00835237 -0.05751748
v 0.01230201 -0.00417145 -0.05581942
v 0.02189885 -0.00162812 -0.07013167
v 0.02269528 -0.00608344 -0.07073377
v 0.01200022 -0.00788850 -0.06994598
v 0.01781865 -0.00823102 -0.07148619
v 0.02050365 -0.00381892 -0.07207227
v 0.01423824 -0.01062779 -0.06200178
v 0.00615128 -0.00988766 -0.06289285
v 0.01272227 -0.01073184 -0.06623246
v 0.01977354 -0.00986872 -0.06843998
vn -0.86809873 -0.18421197 -0.46094528
vn -0.58714770 0.50829855 -0.62999220
vn 0.18038721 0.91644293 0.35720136
vn -0.08024898 0.06056334 -0.99493326
vn 0.83883395 0.53721149 0.08809890
vn -0.48284721 0.87471563 0.04160706
vn 0.02280015 0.56123651 0.82734136
vn 0.74018437 -0.06663264 0.66909431
vn 0.90010155 -0.42429167 0.09896350
vn 0.42148731 -0.56256281 0.71124646
vn 0.39382187 -0.90018382 0.18593930
vn -0.48758750 -0.41018674 0.77071737
vn -0.12263211 0.07165016 0.98986243
vn 0.47489786 0.71492286 -0.51318352
vn 0.70580331 -0.27309879 -0.65365032
vn -0.35791777 -0.48852259 -0.79576413
vn 0.04980545 -0.61593725 -0.78621926
vn 0.25458963 0.26874081 -0.92895775
vn 0.08182722 -0.94558552 0.31491638
vn -0.80177638 -0.58156664 0.13760408
vn -0.15324037 -0.94710585 -0.28197146
vn 0.33431736 -0.87326438 -0.35445905
f 6//6 13//13 7//7
f 7//7 3//3 6//6
f 12//12 13//13 6//6
f 20//20 6//6 1//1
f 20//20 12//12 6//6
f 5//5 8//8 9//9
f 6//6 2//2 1//1
f 3//3 7//7 5//5
f 8//8 7//7 13//13
f 8//8 5//5 7//7
f 12//12 20//20 19//19
f 11//11 19//19 21//21
f 21//21 19//19 20//20
f 21//21 20//20 1//1
f 4//4 1//1 2//2
f 1//1 4//4 16//16
f 6//6 3//3 5//5
f 5//5 14//14 6//6
f 6//6 14//14 2//2
f 12//12 19//19 10//10
f 10//10 19//19 11//11
f 13//13 12//12 10//10
f 10//10 8//8 13//13
f 11//11 21//21 22//22
f 22//22 21//21 17//17
f 17//17 16//16 4//4
f 4//4 18//18 17//17
f 17//17 18//18 15//15
f 16//16 21//21 1//1
f 17//17 21//21 16//16
f 18//18 2//2 14//14
f 18//18 4//4 2//2
f 17//17 15//15 22//22
f 8//8 10//10 11//11
f 11//11 9//9 8//8
f 18//18 14//14 15//15
f 15//15 14//14 5//5
f 5//5 9//9 15//15
f 22//22 9//9 11//11
f 9//9 22//22 15//15