# https://github.com/mikedh/trimesh
v -0.04008330 -0.01597250 0.03122712
v -0.03496402 -0.01484106 0.03900353
v -0.05214890 0.00698118 0.05311844
v -0.09686824 -0.01335389 -0.01413572
v -0.09635895 -0.01287076 0.03130967
v -0.10598411 0.01351205 0.03720852
v -0.09235111 -0.00473537 0.04517965
v -0.00748204 -0.00848950 0.02287977
v -0.00639240 -0.00423314 -0.00792501
v -0.11136559 0.01424371 -0.02243415
v -0.11310165 0.00196281 -0.01670907
v -0.06109216 -0.01643773 -0.02495329
v -0.03950732 -0.00940472 -0.04022692
v -0.11317245 -0.00771196 0.00493935
v -0.11154292 -0.00466891 0.02250876
v -0.10933619 0.02584436 -0.02011006
v -0.01159375 0.00213450 0.03845244
v -0.08674064 -0.01868052 0.01921372
v -0.01410124 0.01749121 0.02695695
v -0.07381750 -0.00673567 -0.03225689
v -0.01926706 -0.00702530 -0.02910528
v -0.00456149 0.01275726 0.01922782
v -0.03824075 -0.00126079 -0.04168002
v -0.03575827 0.00668071 -0.03650761
v -0.10663377 0.03308492 -0.00918928
v -0.10417346 0.03380428 0.00648047
v -0.00237449 -0.00346436 0.01272106
v -0.01140962 0.01314075 0.03421662
v -0.10341467 0.02261451 0.03311783
v -0.10250588 0.02958538 0.02505776
v -0.00659655 0.01494117 -0.00520114
v -0.00710196 0.01911683 0.00268639
v -0.01974456 0.01501480 -0.01946255
v -0.03178376 -0.01273696 -0.03267108
vn 0.11356888 -0.99274551 0.03947741
vn 0.21510368 -0.80951698 0.54627160
vn 0.08571825 0.21779788 0.97222244
vn -0.37583700 -0.83669285 -0.39836118
vn -0.39145942 -0.82980065 0.39773159
vn -0.72289708 0.21355090 0.65712695
vn -0.35815681 -0.39086919 0.84790623
vn 0.66037377 -0.70745165 0.25183059
vn 0.83066076 -0.46302895 -0.30920365
vn -0.76945767 0.07346230 -0.63445897
vn -0.86031485 -0.28336474 -0.42374849
vn -0.10105003 -0.92060310 -0.37719866
vn 0.14090947 -0.53198527 -0.83494682
vn -0.86226126 -0.50643569 -0.00533043
vn -0.89165919 -0.34794679 0.28961512
vn -0.62452933 0.56000972 -0.54438244
vn 0.65197798 -0.13743337 0.74567874
vn -0.16777804 -0.97896007 0.11613657
vn 0.31555396 0.90279795 0.29220123
vn -0.27431396 -0.46355921 -0.84253469
vn 0.70089287 -0.36826148 -0.61084587
vn 0.88410474 0.41601759 0.21281019
vn 0.20437299 0.11837065 -0.97170987
vn 0.28952460 0.59369458 -0.75080107
vn -0.52613152 0.83059481 -0.18247710
vn -0.49420979 0.86051078 0.12360375
vn 0.93832561 -0.34501689 0.02254774
vn 0.57229678 0.57281787 0.58681861
vn -0.54539181 0.59374137 0.59162400
vn -0.47104634 0.80180479 0.36772873
vn 0.81122632 0.44396604 -0.38053385
vn 0.63901379 0.76460091 -0.08394540
vn 0.44521488 0.69688833 -0.56225472
vn 0.32573776 -0.82356137 -0.46437225
f 7//7 6//6 15//15
f 10//10 16//16 23//23
f 14//14 16//16 10//10
f 25//25 6//6 26//26
f 26//26 32//32 25//25
f 16//16 15//15 25//25
f 15//15 6//6 25//25
f 23//23 16//16 24//24
f 16//16 25//25 24//24
f 7//7 15//15 5//5
f 5//5 2//2 7//7
f 11//11 10//10 20//20
f 2//2 3//3 7//7
f 26//26 6//6 30//30
f 7//7 3//3 6//6
f 21//21 9//9 34//34
f 15//15 16//16 14//14
f 23//23 21//21 34//34
f 20//20 4//4 11//11
f 11//11 4//4 14//14
f 14//14 10//10 11//11
f 4//4 12//12 18//18
f 12//12 1//1 18//18
f 2//2 5//5 18//18
f 8//8 9//9 27//27
f 26//26 30//30 19//19
f 26//26 19//19 32//32
f 28//28 30//30 3//3
f 19//19 30//30 28//28
f 29//29 6//6 3//3
f 3//3 30//30 29//29
f 29//29 30//30 6//6
f 3//3 17//17 28//28
f 17//17 2//2 8//8
f 9//9 21//21 31//31
f 27//27 9//9 31//31
f 13//13 34//34 12//12
f 2//2 18//18 1//1
f 1//1 12//12 34//34
f 23//23 34//34 13//13
f 12//12 4//4 13//13
f 5//5 15//15 14//14
f 14//14 18//18 5//5
f 14//14 4//4 18//18
f 32//32 19//19 22//22
f 19//19 28//28 22//22
f 27//27 31//31 22//22
f 22//22 31//31 32//32
f 22//22 17//17 27//27
f 22//22 28//28 17//17
f 2//2 17//17 3//3
f 33//33 31//31 21//21
f 33//33 24//24 25//25
f 32//32 31//31 33//33
f 33//33 25//25 32//32
f 1//1 34//34 8//8
f 27//27 17//17 8//8
f 2//2 1//1 8//8
f 34//34 9//9 8//8
f 20//20 13//13 4//4
f 20//20 10//10 23//23
f 23//23 13//13 20//20
f 24//24 33//33 21//21
f 23//23 24//24 21//21