# https://github.com/mikedh/trimesh
v -0.04990953 -0.01995173 0.03366041
v -0.06367159 -0.02356917 0.04056674
v -0.06696282 -0.01735316 0.05558437
v -0.04107480 -0.01627174 0.04642961
v -0.08910079 -0.01601452 0.03913642
v -0.08104833 0.00471590 0.04876719
v -0.06910632 -0.00873687 0.05889466
v -0.07543498 -0.02150354 0.02652029
v -0.05354352 -0.02138333 0.05401270
v -0.06611160 0.00847037 0.05134065
v -0.05832613 0.00520421 0.05770837
vn 0.61047726 -0.32700364 -0.72137794
vn -0.02950839 -0.99795078 0.05677579
vn -0.32525393 -0.62231556 0.71199243
vn 0.99050168 -0.13565883 0.02242990
vn -0.96301791 -0.25046373 -0.09931977
vn -0.70285972 0.70510387 0.09389746
vn -0.39371306 -0.14950542 0.90699402
vn -0.26352833 -0.40126089 -0.87723572
vn 0.30640492 -0.71729109 0.62578712
vn 0.04811703 0.99588669 -0.07677536
vn 0.43275873 0.68084983 0.59090049
f 1//1 10//10 4//4
f 1//1 8//8 10//10
f 1//1 2//2 8//8
f 10//10 8//8 6//6
f 4//4 10//10 11//11
f 10//10 6//6 11//11
f 5//5 6//6 8//8
f 4//4 11//11 9//9
f 9//9 11//11 7//7
f 2//2 1//1 4//4
f 5//5 3//3 6//6
f 6//6 3//3 7//7
f 7//7 11//11 6//6
f 3//3 9//9 7//7
f 5//5 8//8 2//2
f 2//2 3//3 5//5
f 2//2 4//4 9//9
f 9//9 3//3 2//2