# https://github.com/mikedh/trimesh
v 0.05897506 0.01009911 -0.01334134
v 0.07400678 0.00724633 -0.00283656
v 0.07684983 0.00943693 -0.00633948
v 0.06266273 0.01065749 -0.00089192
v 0.07609156 0.01050997 -0.01363755
v 0.07345414 0.01175176 -0.00915606
v 0.05933196 0.01318238 -0.00579639
v 0.07838459 0.00596860 -0.00726753
v 0.05922230 0.00577749 0.00128556
v 0.07439782 0.00407524 -0.00348700
v 0.07610614 0.00176321 -0.01140089
v 0.07076910 -0.00091965 -0.00799739
v 0.05687470 -0.00143030 -0.00397229
v 0.05803061 0.00124987 -0.00020138
v 0.07876998 0.00936054 -0.01084651
v 0.07899283 0.00614665 -0.01204086
v 0.07644422 0.00853445 -0.01538666
v 0.05559605 -0.00188850 -0.00934120
v 0.06941610 -0.00092819 -0.01232884
v 0.05531176 0.00046474 -0.01340113
v 0.05764671 0.00505830 -0.01548998
v 0.07178482 0.00538653 -0.01759649
v 0.06816137 0.00193291 -0.01591217
v 0.07534179 0.00421425 -0.01626478
vn -0.52200798 0.66876656 -0.52939490
vn 0.46324324 0.23653656 0.85408205
vn 0.61834435 0.59797554 0.50997600
vn 0.00319422 0.66986050 0.74248011
vn 0.33434535 0.82263389 -0.45987679
vn 0.22129904 0.97170839 0.08251992
vn -0.51793455 0.84482968 0.13418870
vn 0.88532263 -0.21696813 0.41125257
vn -0.45063649 0.10669260 0.88630889
vn 0.52749755 -0.45953246 0.71454619
vn 0.63980644 -0.76209616 -0.09928326
vn 0.32015640 -0.91298503 0.25289962
vn -0.59553321 -0.68883330 0.41333870
vn -0.51950147 -0.40684823 0.75139386
vn 0.84382156 0.53524764 -0.03840747
vn 0.94836646 -0.19496603 -0.25017853
vn 0.49182211 0.39322961 -0.77684071
vn -0.72247897 -0.68996484 -0.04441466
vn 0.17009411 -0.91745210 -0.35965211
vn -0.77879137 -0.36345458 -0.51125803
vn -0.56405809 0.14435024 -0.81301997
vn 0.06783538 0.04044409 -0.99687644
vn -0.00145563 -0.58960109 -0.80769328
vn 0.51377631 -0.40094463 -0.75847038
f 20//20 7//7 1//1
f 7//7 9//9 4//4
f 18//18 7//7 20//20
f 18//18 9//9 7//7
f 12//12 13//13 18//18
f 20//20 1//1 21//21
f 7//7 4//4 6//6
f 16//16 15//15 8//8
f 8//8 15//15 3//3
f 3//3 2//2 8//8
f 8//8 2//2 10//10
f 12//12 18//18 19//19
f 19//19 18//18 20//20
f 5//5 6//6 15//15
f 15//15 6//6 3//3
f 11//11 12//12 19//19
f 17//17 15//15 16//16
f 16//16 24//24 17//17
f 10//10 2//2 9//9
f 14//14 13//13 12//12
f 12//12 10//10 14//14
f 9//9 18//18 14//14
f 14//14 18//18 13//13
f 14//14 10//10 9//9
f 2//2 4//4 9//9
f 4//4 2//2 3//3
f 3//3 6//6 4//4
f 7//7 5//5 1//1
f 6//6 5//5 7//7
f 1//1 5//5 17//17
f 16//16 11//11 24//24
f 22//22 17//17 24//24
f 22//22 21//21 1//1
f 20//20 21//21 23//23
f 21//21 22//22 23//23
f 23//23 19//19 20//20
f 11//11 8//8 10//10
f 11//11 10//10 12//12
f 11//11 16//16 8//8
f 5//5 15//15 17//17
f 17//17 22//22 1//1
f 24//24 23//23 22//22
f 19//19 23//23 24//24
f 24//24 11//11 19//19