# https://github.com/mikedh/trimesh
v 0.00081545 0.00175118 0.01307924
v -0.00611763 0.01244505 0.01310627
v -0.00214061 0.00044133 -0.00758452
v -0.00377331 0.00833268 -0.00823814
v 0.02868170 -0.00041529 -0.00803034
v 0.03086961 0.00396378 0.00522377
v 0.03110404 0.00904077 0.00648712
v 0.03028105 0.01467872 0.00312339
v 0.02863424 0.01661914 -0.00266809
v 0.00117836 -0.00263867 -0.00049207
v 0.02844326 0.00359169 -0.01173007
v 0.02854937 0.00916873 -0.01287261
v 0.02858813 0.01434141 -0.01012993
v 0.00375941 0.01507756 -0.00676254
v 0.02461607 -0.00192118 0.00158974
v 0.00400573 0.01834056 0.00035486
vn -0.29441473 -0.55799091 0.77586475
vn -0.69507500 0.33965845 0.63364255
vn -0.59055667 -0.58153862 -0.55951376
vn -0.73107548 0.19660176 -0.65335778
vn 0.59764610 -0.70866986 -0.37497489
vn 0.77892628 -0.40921579 0.47520131
vn 0.76571140 0.13189158 0.62951622
vn 0.69494215 0.62351632 0.35816590
vn 0.50272796 0.86222884 -0.06185495
vn -0.39100569 -0.92011429 0.02245525
vn 0.56243923 -0.35351250 -0.74745637
vn 0.54308672 0.11928913 -0.83115999
vn 0.54981233 0.60663769 -0.57419257
vn -0.28309293 0.70284403 -0.65258614
vn 0.28488410 -0.91721690 0.27848557
vn -0.24393550 0.96970118 -0.01323192
f 2//2 4//4 3//3
f 1//1 7//7 2//2
f 2//2 7//7 8//8
f 16//16 4//4 2//2
f 16//16 8//8 9//9
f 6//6 12//12 7//7
f 12//12 3//3 4//4
f 13//13 16//16 9//9
f 9//9 8//8 13//13
f 7//7 12//12 13//13
f 13//13 8//8 7//7
f 8//8 16//16 2//2
f 10//10 1//1 2//2
f 2//2 3//3 10//10
f 5//5 15//15 10//10
f 10//10 3//3 5//5
f 11//11 5//5 3//3
f 4//4 16//16 14//14
f 16//16 13//13 14//14
f 1//1 15//15 6//6
f 7//7 1//1 6//6
f 10//10 15//15 1//1
f 15//15 5//5 6//6
f 3//3 12//12 11//11
f 12//12 6//6 11//11
f 11//11 6//6 5//5
f 12//12 4//4 13//13
f 4//4 14//14 13//13