# https://github.com/mikedh/trimesh
v -0.03902684 -0.00219156 0.05374651
v -0.04521917 0.00294195 0.06006783
v -0.04383124 -0.01857205 0.05604775
v -0.05897081 -0.01787707 0.06015864
v -0.06053144 -0.00656084 0.06321850
v -0.03730321 -0.01180404 0.05102223
v -0.03529296 -0.02085934 0.07561210
v -0.03599168 -0.00876683 0.07890520
v -0.02852438 -0.00339958 0.06991444
v -0.02519645 -0.00839841 0.06395487
v -0.02999402 -0.02191266 0.06654420
vn 0.15664336 0.59214939 -0.79045680
vn -0.21115580 0.96339218 -0.16519302
vn -0.07572370 -0.80385091 -0.58999121
vn -0.80711091 -0.55175404 -0.21009394
vn -0.93663142 0.34586625 0.05566072
vn 0.23643672 -0.15008530 -0.95998546
vn 0.14984743 -0.69243815 0.70574440
vn 0.10956664 0.22829244 0.96740773
vn 0.67766030 0.62743122 0.38354475
vn 0.97815088 0.13935769 -0.15427346
vn 0.59454959 -0.80379979 -0.02041261
f 8//8 7//7 9//9
f 2//2 9//9 1//1
f 1//1 5//5 2//2
f 6//6 5//5 1//1
f 4//4 7//7 5//5
f 4//4 5//5 6//6
f 10//10 7//7 11//11
f 2//2 5//5 8//8
f 10//10 9//9 7//7
f 10//10 1//1 9//9
f 7//7 8//8 5//5
f 10//10 6//6 1//1
f 11//11 6//6 10//10
f 3//3 4//4 6//6
f 6//6 11//11 3//3
f 8//8 9//9 2//2
f 7//7 4//4 3//3
f 3//3 11//11 7//7