# https://github.com/mikedh/trimesh
v 0.03215781 -0.00338609 0.07551333
v 0.03625298 -0.01560041 0.07933050
v 0.02074927 -0.00535808 0.07216237
v 0.01204423 -0.02326952 0.09184055
v 0.00915385 -0.01907199 0.09510610
v 0.00652593 -0.01511675 0.09438188
v 0.00660962 -0.02247440 0.09271175
v 0.02264398 -0.02418949 0.08341274
v 0.01657370 -0.02614536 0.07850563
v 0.00792629 -0.02409299 0.08414860
v 0.02639637 -0.02313354 0.06890999
v 0.02795983 -0.02504267 0.07530493
v 0.00297348 -0.01722702 0.09250973
v 0.00584764 -0.01166670 0.09115666
v 0.00558343 -0.01027570 0.08343405
v 0.00269109 -0.01259059 0.08800928
v 0.02380024 -0.01807555 0.06493652
v 0.01336751 -0.02072375 0.07193163
v 0.02058319 -0.01258441 0.06443499
v 0.01968590 -0.00744874 0.06784744
v 0.01087540 -0.01269983 0.07248502
v 0.00552439 -0.01466981 0.07866248
v 0.00290773 -0.01933086 0.08613203
vn 0.62132377 0.78256814 -0.03929209
vn 0.96820824 -0.07764401 0.23779027
vn -0.23868915 0.95248751 -0.18919576
vn 0.21621424 -0.75966087 0.61332436
vn 0.10808935 -0.10112186 0.98898486
vn -0.16413093 0.38507062 0.90817490
vn -0.42625507 -0.73094391 0.53294241
vn 0.37559523 -0.79296347 0.47972613
vn -0.15228695 -0.97646916 -0.15269795
vn -0.49406466 -0.85776503 -0.14191287
vn 0.35348683 -0.66763836 -0.65521453
vn 0.48884099 -0.87108188 -0.04744305
vn -0.83431658 -0.07078312 0.54672260
vn -0.28663505 0.78287442 0.55222097
vn -0.59685386 0.79054114 -0.13715020
vn -0.86953982 0.48654314 0.08471288
vn 0.20049687 -0.27741204 -0.93959755
vn -0.54612120 -0.52599805 -0.65197982
vn -0.11299020 0.17736542 -0.97763732
vn -0.23332500 0.69978522 -0.67517412
vn -0.71472216 0.25415408 -0.65159646
vn -0.84998036 0.06193866 -0.52316058
vn -0.90742975 -0.38566274 -0.16683973
f 2//2 1//1 5//5
f 12//12 11//11 2//2
f 12//12 8//8 9//9
f 20//20 1//1 19//19
f 20//20 3//3 1//1
f 1//1 3//3 15//15
f 1//1 14//14 6//6
f 6//6 5//5 1//1
f 18//18 21//21 19//19
f 22//22 21//21 18//18
f 8//8 12//12 2//2
f 2//2 4//4 8//8
f 21//21 20//20 19//19
f 1//1 15//15 14//14
f 15//15 16//16 14//14
f 5//5 6//6 13//13
f 13//13 6//6 14//14
f 14//14 16//16 13//13
f 9//9 18//18 11//11
f 10//10 18//18 9//9
f 11//11 12//12 9//9
f 17//17 18//18 19//19
f 11//11 18//18 17//17
f 19//19 1//1 17//17
f 17//17 1//1 2//2
f 2//2 11//11 17//17
f 23//23 22//22 18//18
f 7//7 4//4 5//5
f 5//5 13//13 7//7
f 5//5 4//4 2//2
f 7//7 23//23 10//10
f 7//7 10//10 4//4
f 9//9 8//8 4//4
f 4//4 10//10 9//9
f 22//22 23//23 16//16
f 3//3 20//20 15//15
f 20//20 21//21 15//15
f 13//13 23//23 7//7
f 16//16 23//23 13//13
f 15//15 22//22 16//16
f 21//21 22//22 15//15
f 10//10 23//23 18//18