# https://github.com/mikedh/trimesh
v -0.02587590 -0.00179396 0.03499186
v -0.02658546 0.01211055 0.03557756
v -0.02652613 0.00772427 0.03847966
v -0.02599637 0.00242780 0.03821729
v -0.02750718 0.01365901 0.02343014
v -0.03220321 0.00216752 0.02018706
v -0.04818771 0.00751387 0.02153814
v -0.02707622 0.00795352 0.01949344
v -0.04496019 -0.00075868 0.03420448
v -0.04463381 -0.00305739 0.02658173
v -0.04714630 0.00478923 0.03731225
v -0.03222711 -0.00232369 0.02341399
v -0.04587377 -0.00146858 0.02273097
v -0.04628722 0.01173470 0.03009212
v -0.04694515 0.01044268 0.02445043
vn 0.65300671 -0.69358721 0.30416940
vn 0.57183772 0.70025866 0.42736336
vn 0.54732632 0.26168039 0.79495741
vn 0.64131049 -0.24710426 0.72640233
vn 0.50756403 0.78220845 -0.36128755
vn 0.14903187 -0.36685582 -0.91826266
vn -0.73917594 0.20630582 -0.64113715
vn 0.61342274 0.09442545 -0.78408952
vn -0.49654079 -0.72387018 0.47901901
vn -0.45132462 -0.89235681 -0.00232532
vn -0.67463995 0.02669305 0.73766416
vn 0.31637346 -0.82756655 -0.46372561
vn -0.58588009 -0.59128928 -0.55418544
vn -0.58326205 0.78200650 0.21970712
vn -0.58342324 0.75304400 -0.30420727
f 7//7 5//5 8//8
f 15//15 5//5 7//7
f 11//11 4//4 3//3
f 9//9 4//4 11//11
f 7//7 13//13 11//11
f 11//11 13//13 9//9
f 5//5 14//14 2//2
f 1//1 4//4 9//9
f 6//6 13//13 7//7
f 7//7 8//8 6//6
f 12//12 8//8 1//1
f 6//6 8//8 12//12
f 5//5 15//15 14//14
f 14//14 15//15 7//7
f 7//7 11//11 14//14
f 6//6 12//12 13//13
f 3//3 4//4 2//2
f 2//2 14//14 11//11
f 2//2 8//8 5//5
f 1//1 8//8 2//2
f 2//2 4//4 1//1
f 9//9 13//13 10//10
f 10//10 13//13 12//12
f 2//2 11//11 3//3
f 12//12 1//1 10//10
f 10//10 1//1 9//9