# https://github.com/mikedh/trimesh
v 0.02715400 0.00000000 -0.03737400
v 0.03179200 0.02428700 0.02309800
v -0.02715400 0.00000000 -0.03737400
v -0.03929700 0.02428700 0.00000000
v -0.01214400 0.02428700 0.03737300
v -0.03342800 0.02066000 -0.02428700
v 0.03179200 0.02428700 -0.02309800
v -0.03179200 -0.02428700 -0.02309800
v -0.02428700 -0.03929700 0.00000000
v -0.01276800 -0.02066000 0.03929700
v 0.04393500 0.00000000 -0.01427500
v -0.01964800 0.03929700 -0.01427500
v -0.03179200 -0.02428700 0.02309800
v -0.04131900 -0.02066000 0.00000000
v 0.03342800 -0.02066000 0.02428700
v 0.03342800 -0.02066000 -0.02428700
v 0.01964800 -0.03929700 -0.01427500
v 0.01276800 0.02066000 0.03929700
v -0.04393500 0.00000000 0.01427500
v 0.00000000 0.00000000 -0.04619600
v 0.04131900 0.02066000 0.00000000
v 0.00000000 -0.04619600 0.00000000
v 0.01214400 -0.02428700 0.03737300
v 0.03929700 -0.02428700 0.00000000
v 0.01276800 0.02066000 -0.03929700
v -0.04393500 0.00000000 -0.01427500
v 0.01964800 -0.03929700 0.01427500
v -0.00750500 -0.03929700 -0.02309800
v 0.00750500 0.03929700 0.02309800
v -0.03342800 0.02066000 0.02428700
v -0.01276800 -0.02066000 -0.03929700
v 0.04393500 0.00000000 0.01427500
v -0.01964800 0.03929700 0.01427500
v 0.01214400 -0.02428700 -0.03737300
v 0.02715400 0.00000000 0.03737400
v 0.00000000 0.00000000 0.04619600
v 0.00000000 0.04619600 0.00000000
v -0.02715400 0.00000000 0.03737400
v -0.00750500 -0.03929700 0.02309800
v 0.02428700 0.03929700 0.00000000
v -0.01214400 0.02428700 -0.03737300
v 0.00750500 0.03929700 -0.02309800
vn 0.58778635 0.00000052 -0.80901620
vn 0.68819499 0.52573234 0.49999316
vn -0.58778635 -0.00000052 -0.80901620
vn -0.85065083 0.52573108 0.00000000
vn -0.26286850 0.52574028 0.80901008
vn -0.72360555 0.44722369 -0.52572424
vn 0.68819499 0.52573234 -0.49999316
vn -0.68819499 -0.52573234 -0.49999316
vn -0.52572663 -0.85065358 0.00000000
vn -0.27637271 -0.44722315 0.85065244
vn 0.95106184 0.00000321 -0.30900062
vn -0.42531433 0.85065959 -0.30900804
vn -0.68819499 -0.52573234 0.49999316
vn -0.89443011 -0.44720776 0.00000000
vn 0.72360555 -0.44722369 0.52572424
vn 0.72360555 -0.44722369 -0.52572424
vn 0.42531433 -0.85065959 -0.30900804
vn 0.27637271 0.44722315 0.85065244
vn -0.95106184 -0.00000321 0.30900062
vn -0.00000000 0.00000000 -1.00000000
vn 0.89443011 0.44720776 0.00000000
vn 0.00000448 -1.00000000 0.00000000
vn 0.26286850 -0.52574028 0.80901008
vn 0.85065083 -0.52573108 -0.00000000
vn 0.27637271 0.44722315 -0.85065244
vn -0.95106184 -0.00000321 -0.30900062
vn 0.42531433 -0.85065959 0.30900804
vn -0.16245184 -0.85065478 -0.49999584
vn 0.16245184 0.85065478 0.49999584
vn -0.72360555 0.44722369 0.52572424
vn -0.27637271 -0.44722315 -0.85065244
vn 0.95106184 0.00000321 0.30900062
vn -0.42531433 0.85065959 0.30900804
vn 0.26286850 -0.52574028 -0.80901008
vn 0.58778635 0.00000052 0.80901620
vn 0.00000000 -0.00000000 1.00000000
vn -0.00000448 1.00000000 0.00000000
vn -0.58778635 -0.00000052 0.80901620
vn -0.16245184 -0.85065478 0.49999584
vn 0.52572663 0.85065358 0.00000000
vn -0.26286850 0.52574028 -0.80901008
vn 0.16245184 0.85065478 -0.49999584
f 18//18 35//35 2//2
f 8//8 26//26 3//3
f 34//34 31//31 20//20
f 1//1 20//20 25//25
f 21//21 2//2 32//32
f 18//18 5//5 36//36
f 3//3 41//41 20//20
f 25//25 20//20 41//41
f 34//34 20//20 1//1
f 1//1 25//25 7//7
f 11//11 21//21 32//32
f 1//1 7//7 11//11
f 18//18 2//2 29//29
f 18//18 29//29 5//5
f 40//40 29//29 2//2
f 37//37 33//33 29//29
f 40//40 7//7 42//42
f 36//36 23//23 35//35
f 4//4 6//6 26//26
f 19//19 38//38 30//30
f 37//37 40//40 42//42
f 19//19 30//30 4//4
f 19//19 13//13 38//38
f 11//11 32//32 24//24
f 15//15 23//23 27//27
f 8//8 9//9 14//14
f 5//5 33//33 30//30
f 9//9 22//22 39//39
f 37//37 29//29 40//40
f 15//15 27//27 24//24
f 3//3 6//6 41//41
f 16//16 24//24 17//17
f 15//15 35//35 23//23
f 19//19 14//14 13//13
f 12//12 41//41 6//6
f 9//9 13//13 14//14
f 17//17 24//24 27//27
f 13//13 10//10 38//38
f 15//15 32//32 35//35
f 19//19 26//26 14//14
f 13//13 39//39 10//10
f 34//34 17//17 28//28
f 11//11 7//7 21//21
f 16//16 11//11 24//24
f 22//22 27//27 39//39
f 4//4 30//30 33//33
f 22//22 17//17 27//27
f 8//8 28//28 9//9
f 10//10 39//39 23//23
f 9//9 39//39 13//13
f 5//5 30//30 38//38
f 16//16 17//17 34//34
f 34//34 28//28 31//31
f 9//9 28//28 22//22
f 12//12 33//33 37//37
f 25//25 42//42 7//7
f 8//8 14//14 26//26
f 35//35 32//32 2//2
f 8//8 31//31 28//28
f 18//18 36//36 35//35
f 3//3 26//26 6//6
f 27//27 23//23 39//39
f 21//21 40//40 2//2
f 3//3 20//20 31//31
f 12//12 6//6 4//4
f 12//12 37//37 42//42
f 12//12 4//4 33//33
f 36//36 10//10 23//23
f 5//5 38//38 36//36
f 16//16 1//1 11//11
f 28//28 17//17 22//22
f 16//16 34//34 1//1
f 8//8 3//3 31//31
f 12//12 42//42 41//41
f 36//36 38//38 10//10
f 25//25 41//41 42//42
f 19//19 4//4 26//26
f 21//21 7//7 40//40
f 15//15 24//24 32//32
f 5//5 29//29 33//33