####
#
# OBJ File Generated by Meshlab
#
####
# Object F1.obj
#
# Vertices: 52
# Faces: 100
#
####
vn -0.593938 -0.412708 -0.690587
v -0.008608 -0.003883 0.003356
vn -0.749490 0.444113 -0.490947
v -0.007950 0.004391 0.003427
vn 0.328991 0.919151 0.216623
v 0.005140 0.005719 0.023592
vn 0.611540 -0.662594 0.432420
v 0.004794 -0.003628 0.025434
vn -0.985245 0.115896 -0.125940
v -0.008789 0.002275 0.004031
vn 0.752277 0.447099 -0.483923
v 0.007950 0.004391 0.003427
vn 0.267202 -0.959208 0.092326
v 0.004193 -0.007370 0.010553
vn -0.467698 0.867785 -0.167952
v -0.005433 0.006515 0.003091
vn -0.953931 0.162816 0.252004
v -0.006839 0.001566 0.025010
vn -0.567873 -0.801172 0.188795
v -0.005225 -0.005742 0.018162
vn -0.708210 0.704386 0.047734
v -0.006634 0.005564 0.008376
vn -0.233658 0.614190 -0.753774
v -0.003431 0.006905 0.002271
vn -0.927314 0.364392 0.085480
v -0.007814 0.003510 0.013381
vn -0.781745 -0.298733 0.547388
v -0.006066 -0.001418 0.027380
vn 0.276204 -0.534377 0.798844
v 0.003115 -0.001970 0.028404
vn 0.925621 0.369163 0.083332
v 0.007814 0.003510 0.013381
vn 0.332594 -0.922892 -0.194039
v 0.005323 -0.007169 0.006653
vn 0.879835 -0.452167 0.146408
v 0.007686 -0.003681 0.014318
vn 0.922463 -0.195034 0.333202
v 0.006792 -0.000897 0.024839
vn 0.109274 -0.976682 0.184799
v 0.002354 -0.006592 0.018017
vn -0.007133 -0.968682 -0.248202
v -0.000826 -0.007777 0.007269
vn 0.136890 0.988707 0.060986
v 0.002839 0.006853 0.017577
vn 0.467732 0.867776 -0.167903
v 0.005433 0.006515 0.003091
vn -0.838905 0.513306 0.180986
v -0.006084 0.004480 0.024172
vn -0.370053 0.904017 0.214041
v -0.005142 0.005717 0.023633
vn -0.911812 -0.398633 0.098441
v -0.008113 -0.003818 0.010659
vn -0.898875 -0.407099 0.162152
v -0.007260 -0.003544 0.017976
vn 0.672910 -0.442167 -0.593027
v 0.008780 -0.003864 0.003355
vn 0.633852 -0.769999 0.073028
v 0.006000 -0.006682 0.008252
vn 0.490631 -0.847070 0.204340
v 0.005225 -0.005742 0.018162
vn -0.102460 -0.974195 0.201113
v -0.002215 -0.006318 0.019451
vn 0.103406 -0.904408 0.413948
v 0.001256 -0.004930 0.024596
vn -0.269439 -0.958064 0.097550
v -0.004193 -0.007370 0.010553
vn 0.173007 0.633970 -0.753757
v 0.003432 0.006905 0.002271
vn -0.091017 0.993218 0.072342
v -0.002838 0.006854 0.017576
vn -0.997498 -0.057100 0.041671
v -0.008756 -0.001925 0.005077
vn -0.345451 -0.918460 -0.192599
v -0.005323 -0.007169 0.006653
vn -0.263276 0.274534 0.924833
v -0.003013 0.002932 0.028771
vn -0.993551 -0.029121 0.109584
v -0.007962 0.000156 0.016025
vn 0.707957 0.704639 0.047749
v 0.006634 0.005564 0.008376
vn 0.978892 0.151837 -0.136804
v 0.008789 0.002275 0.004031
vn -0.262954 -0.860207 0.436921
v -0.003592 -0.004321 0.025492
vn -0.607985 0.579064 0.543175
v -0.005328 0.004318 0.026373
vn -0.637293 -0.767851 0.065287
v -0.006000 -0.006682 0.008252
vn 0.779217 0.550836 0.298998
v 0.006084 0.004480 0.024172
vn 0.645027 -0.066985 0.761218
v 0.005142 -0.000028 0.027705
vn 0.790102 0.261677 0.554314
v 0.006125 0.002548 0.026150
vn 0.147849 0.055916 0.987428
v 0.001155 0.001385 0.029479
vn -0.119308 -0.514049 0.849423
v -0.001557 -0.002273 0.028371
vn 0.251599 0.680717 0.687985
v 0.002211 0.004255 0.027896
vn 0.994977 -0.008080 0.099779
v 0.007962 0.000156 0.016025
vn 0.965609 0.150767 0.211824
v 0.006951 0.001848 0.024325
# 52 vertices, 0 vertices normals

f 28//28 1//1 34//34
f 12//12 34//34 1//1
f 12//12 1//1 2//2
f 8//8 12//12 2//2
f 2//2 1//1 5//5
f 6//6 28//28 34//34
f 21//21 1//1 28//28
f 11//11 8//8 2//2
f 25//25 43//43 50//50
f 13//13 11//11 2//2
f 13//13 2//2 5//5
f 36//36 5//5 1//1
f 39//39 9//9 13//13
f 17//17 21//21 28//28
f 17//17 28//28 29//29
f 17//17 7//7 21//21
f 18//18 29//29 28//28
f 30//30 29//29 18//18
f 21//21 7//7 20//20
f 21//21 20//20 31//31
f 48//48 15//15 46//46
f 23//23 6//6 34//34
f 23//23 34//34 22//22
f 35//35 12//12 8//8
f 35//35 25//25 3//3
f 35//35 3//3 22//22
f 24//24 13//13 9//9
f 24//24 11//11 13//13
f 26//26 36//36 1//1
f 44//44 26//26 1//1
f 44//44 10//10 26//26
f 14//14 10//10 42//42
f 27//27 26//26 10//10
f 27//27 10//10 14//14
f 14//14 42//42 49//49
f 39//39 13//13 5//5
f 39//39 5//5 36//36
f 40//40 16//16 6//6
f 4//4 30//30 18//18
f 4//4 18//18 19//19
f 29//29 7//7 17//17
f 30//30 32//32 20//20
f 30//30 20//20 7//7
f 30//30 7//7 29//29
f 31//31 20//20 32//32
f 32//32 30//30 4//4
f 32//32 4//4 15//15
f 50//50 48//48 46//46
f 33//33 21//21 31//31
f 33//33 31//31 10//10
f 34//34 35//35 22//22
f 34//34 12//12 35//35
f 24//24 43//43 25//25
f 24//24 25//25 11//11
f 25//25 8//8 11//11
f 25//25 35//35 8//8
f 36//36 26//26 39//39
f 37//37 44//44 1//1
f 37//37 1//1 21//21
f 37//37 21//21 33//33
f 14//14 39//39 27//27
f 38//38 50//50 43//43
f 43//43 9//9 14//14
f 49//49 48//48 38//38
f 39//39 26//26 27//27
f 9//9 39//39 14//14
f 45//45 16//16 40//40
f 45//45 52//52 16//16
f 40//40 6//6 23//23
f 41//41 28//28 6//6
f 41//41 6//6 16//16
f 46//46 15//15 4//4
f 42//42 10//10 31//31
f 42//42 32//32 49//49
f 32//32 15//15 49//49
f 48//48 50//50 38//38
f 14//14 38//38 43//43
f 14//14 49//49 38//38
f 49//49 15//15 48//48
f 50//50 3//3 25//25
f 3//3 23//23 22//22
f 3//3 40//40 23//23
f 43//43 24//24 9//9
f 44//44 37//37 33//33
f 44//44 33//33 10//10
f 45//45 40//40 3//3
f 51//51 28//28 41//41
f 51//51 41//41 16//16
f 46//46 4//4 19//19
f 47//47 46//46 19//19
f 51//51 19//19 18//18
f 32//32 42//42 31//31
f 50//50 45//45 3//3
f 28//28 51//51 18//18
f 51//51 16//16 52//52
f 47//47 52//52 45//45
f 50//50 46//46 47//47
f 52//52 47//47 19//19
f 52//52 19//19 51//51
f 47//47 45//45 50//50
# 100 faces, 0 coords texture

# End of File
