####
#
# OBJ File Generated by Meshlab
#
####
# Object F2.obj
#
# Vertices: 27
# Faces: 50
#
####
vn 0.287004 0.945889 -0.151401
v 0.005898 0.007634 -0.000422
vn -0.203569 0.787721 -0.581425
v -0.005932 0.006806 -0.004463
vn 0.884231 -0.427082 0.189039
v 0.009000 -0.003587 0.025822
vn 0.016223 0.304236 -0.952459
v -0.000000 0.002344 -0.008011
vn -0.219207 -0.861456 0.458085
v -0.005332 -0.006602 0.026893
vn 0.543265 0.702443 -0.459823
v 0.008918 0.005250 -0.002634
vn -0.005064 0.977686 -0.210012
v -0.000003 0.008070 -0.001063
vn -0.798936 -0.499895 -0.334376
v -0.008982 -0.004202 -0.004329
vn -0.136649 0.950059 0.280562
v -0.005528 0.007000 0.026760
vn -0.681402 -0.494565 0.539535
v -0.009006 -0.003374 0.028780
vn 0.771678 -0.136096 -0.621282
v 0.009011 -0.003266 -0.005181
vn 0.547902 -0.782808 -0.294982
v 0.007728 -0.006784 -0.003738
vn 0.088270 0.988813 0.120236
v 0.004763 0.007058 0.025449
vn 0.340610 0.903598 0.259797
v 0.005898 0.006765 0.026037
vn 0.176447 0.586777 0.790290
v 0.005310 0.003285 0.032080
vn 0.304724 -0.895739 0.323719
v 0.005629 -0.006760 0.027216
vn -0.559088 0.825322 -0.079142
v -0.007652 0.006580 -0.001713
vn 0.102979 -0.656144 -0.747577
v 0.006555 -0.005611 -0.005727
vn 0.338289 -0.941042 -0.000442
v 0.005447 -0.009104 0.011626
vn 0.895372 0.264923 0.357945
v 0.009001 0.003900 0.028849
vn -0.231654 0.030549 0.972318
v -0.006025 0.002694 0.031831
vn -0.777691 0.483445 0.401843
v -0.008758 0.004214 0.030100
vn -0.214720 -0.149120 -0.965225
v -0.006123 -0.002193 -0.007672
vn -0.180538 -0.934801 -0.305866
v -0.005819 -0.007465 -0.000717
vn 0.309913 -0.453686 0.835538
v 0.005618 -0.003564 0.031377
vn -0.773774 0.332919 -0.538924
v -0.008939 0.003867 -0.004171
vn -0.388308 -0.920283 0.047925
v -0.005378 -0.009155 0.012063
# 27 vertices, 0 vertices normals

f 24//24 18//18 12//12
f 6//6 7//7 1//1
f 11//11 23//23 4//4
f 18//18 23//23 11//11
f 11//11 3//3 12//12
f 6//6 11//11 4//4
f 2//2 17//17 7//7
f 13//13 1//1 7//7
f 14//14 6//6 1//1
f 14//14 1//1 13//13
f 14//14 13//13 9//9
f 2//2 6//6 4//4
f 15//15 14//14 9//9
f 22//22 15//15 9//9
f 22//22 21//21 15//15
f 8//8 18//18 24//24
f 18//18 11//11 12//12
f 19//19 3//3 16//16
f 19//19 12//12 3//3
f 25//25 16//16 3//3
f 2//2 7//7 6//6
f 26//26 2//2 4//4
f 26//26 4//4 23//23
f 20//20 14//14 15//15
f 21//21 22//22 10//10
f 16//16 5//5 27//27
f 26//26 22//22 17//17
f 22//22 9//9 17//17
f 2//2 26//26 17//17
f 9//9 7//7 17//17
f 25//25 15//15 21//21
f 8//8 23//23 18//18
f 19//19 27//27 24//24
f 19//19 24//24 12//12
f 20//20 6//6 14//14
f 16//16 27//27 19//19
f 7//7 9//9 13//13
f 25//25 5//5 16//16
f 27//27 5//5 10//10
f 27//27 10//10 8//8
f 26//26 23//23 8//8
f 10//10 5//5 25//25
f 10//10 25//25 21//21
f 27//27 8//8 24//24
f 20//20 25//25 3//3
f 20//20 3//3 11//11
f 20//20 11//11 6//6
f 20//20 15//15 25//25
f 8//8 22//22 26//26
f 8//8 10//10 22//22
# 50 faces, 0 coords texture

# End of File
