####
#
# OBJ File Generated by Meshlab
#
####
# Object lfmetacarpal.obj
#
# Vertices: 14
# Faces: 24
#
####
vn -0.258014 -0.821881 0.507878
v -0.008558 -0.010816 0.056712
vn 0.691209 -0.635949 0.343220
v 0.008927 -0.010771 0.034296
vn -0.228517 -0.680432 -0.696270
v -0.008900 -0.010776 0.008173
vn -0.041070 -0.808240 -0.587420
v 0.003618 -0.011001 0.025977
vn 0.538002 -0.620243 0.570835
v 0.008313 -0.010983 0.057300
vn 0.677008 0.258646 0.689030
v 0.008541 0.010691 0.059214
vn 0.544990 -0.273139 -0.792705
v 0.003554 0.004742 0.025888
vn 0.471338 0.846724 0.246779
v 0.008902 0.010892 0.034661
vn -0.578620 0.772015 0.263045
v -0.008715 0.010847 0.059701
vn 0.747487 0.626324 0.221318
v 0.020942 0.010588 0.025884
vn 0.256130 0.073903 -0.963813
v 0.022272 -0.002825 0.012989
vn 0.725971 -0.687674 -0.008405
v 0.026823 -0.008330 0.021662
vn -0.107668 0.718337 -0.687313
v 0.009701 0.011118 0.021788
vn 0.173716 0.150733 -0.973192
v -0.009266 0.006557 0.006040
# 14 vertices, 0 vertices normals

f 2//2 1//1 4//4
f 4//4 1//1 3//3
f 7//7 3//3 14//14
f 14//14 13//13 7//7
f 12//12 11//11 10//10
f 2//2 12//12 10//10
f 11//11 13//13 10//10
f 8//8 9//9 6//6
f 9//9 1//1 6//6
f 13//13 11//11 4//4
f 7//7 13//13 4//4
f 3//3 9//9 14//14
f 10//10 13//13 8//8
f 8//8 2//2 10//10
f 8//8 6//6 2//2
f 8//8 13//13 9//9
f 6//6 1//1 5//5
f 12//12 2//2 4//4
f 2//2 6//6 5//5
f 7//7 4//4 3//3
f 11//11 12//12 4//4
f 13//13 14//14 9//9
f 3//3 1//1 9//9
f 5//5 1//1 2//2
# 24 faces, 0 coords texture

# End of File
