####
#
# OBJ File Generated by Meshlab
#
####
# Object palm.obj
#
# Vertices: 27
# Faces: 50
#
####
vn -0.543207 -0.711317 0.446043
v -0.019383 -0.010680 0.087471
vn 0.126040 0.991649 -0.027332
v 0.039793 0.010933 0.004129
vn -0.771388 0.213109 0.599621
v -0.019761 0.008974 0.095071
vn 0.651096 -0.704032 0.283572
v 0.041131 -0.010925 0.086529
vn -0.525083 0.850021 0.041864
v -0.036010 0.010833 0.023685
vn 0.120844 -0.992367 -0.024569
v 0.029064 -0.023106 0.018050
vn -0.028785 -0.719056 0.694355
v 0.009611 -0.009198 0.099327
vn -0.405290 0.618873 -0.672857
v -0.036752 0.007496 -0.008958
vn -0.065962 0.991783 -0.109611
v -0.029444 0.010973 -0.002107
vn 0.618358 0.728816 -0.294041
v 0.041957 0.009920 -0.005822
vn 0.023360 0.997850 0.061232
v 0.031355 0.011546 0.100118
vn -0.077621 0.406681 0.910267
v 0.009535 0.011521 0.103597
vn -0.561615 -0.744978 -0.359994
v -0.037008 -0.009643 -0.004260
vn -0.314854 -0.299280 0.900721
v -0.007994 -0.004872 0.097174
vn 0.741917 -0.512916 -0.431829
v 0.041996 -0.009796 -0.006500
vn 0.629335 0.470915 0.618204
v 0.040086 0.010959 0.100529
vn 0.852408 -0.521074 -0.043394
v 0.042003 -0.016067 0.016576
vn -0.257594 0.843028 0.472174
v -0.014652 0.011509 0.097321
vn -0.519530 -0.853845 0.032188
v -0.038267 -0.010328 0.017981
vn 0.321667 -0.632044 0.705018
v 0.032747 -0.009216 0.096238
vn 0.038885 -0.748564 -0.661921
v 0.017140 -0.013507 -0.007142
vn 0.414917 0.179848 -0.891907
v 0.041266 0.003069 -0.010094
vn 0.114448 -0.353184 -0.928527
v 0.030141 -0.004413 -0.012320
vn -0.999265 0.013967 0.035695
v -0.043371 0.001015 0.023726
vn -0.548585 -0.296953 -0.781584
v -0.035955 -0.003846 -0.010211
vn 0.019103 -0.935992 -0.351503
v 0.021219 -0.021393 0.008315
vn 0.995539 0.071192 0.061912
v 0.042002 0.007978 0.092436
# 27 vertices, 0 vertices normals

f 10//10 8//8 9//9
f 19//19 6//6 1//1
f 19//19 26//26 6//6
f 8//8 10//10 22//22
f 9//9 2//2 10//10
f 5//5 9//9 8//8
f 24//24 8//8 25//25
f 11//11 12//12 16//16
f 11//11 18//18 12//12
f 20//20 4//4 16//16
f 20//20 7//7 4//4
f 12//12 7//7 16//16
f 13//13 26//26 19//19
f 13//13 24//24 25//25
f 14//14 1//1 7//7
f 14//14 18//18 3//3
f 14//14 12//12 18//18
f 14//14 3//3 1//1
f 14//14 7//7 12//12
f 6//6 4//4 7//7
f 6//6 17//17 4//4
f 6//6 15//15 17//17
f 16//16 4//4 27//27
f 16//16 27//27 10//10
f 17//17 27//27 4//4
f 18//18 5//5 3//3
f 9//9 5//5 18//18
f 24//24 3//3 5//5
f 24//24 5//5 8//8
f 19//19 24//24 13//13
f 16//16 2//2 11//11
f 9//9 11//11 2//2
f 9//9 18//18 11//11
f 20//20 16//16 7//7
f 24//24 1//1 3//3
f 6//6 7//7 1//1
f 15//15 23//23 22//22
f 15//15 22//22 10//10
f 10//10 2//2 16//16
f 22//22 23//23 8//8
f 23//23 25//25 8//8
f 24//24 19//19 1//1
f 25//25 21//21 13//13
f 26//26 13//13 21//21
f 23//23 21//21 25//25
f 15//15 27//27 17//17
f 26//26 15//15 6//6
f 26//26 21//21 23//23
f 15//15 26//26 23//23
f 27//27 15//15 10//10
# 50 faces, 0 coords texture

# End of File
