# https://github.com/mikedh/trimesh
v 0.34140800 0.34140800 0.34140800
v 0.35140800 0.34140800 0.34140800
v 0.34140800 0.35140800 0.34140800
v 0.35140800 0.35140800 0.34140800
v 0.34140800 0.34140800 0.35140800
v 0.35140800 0.34140800 0.35140800
v 0.34140800 0.35140800 0.35140800
v 0.35140800 0.35140800 0.35140800
vn -0.57735027 -0.57735027 -0.57735027
vn 0.57735027 -0.57735027 -0.57735027
vn -0.57735027 0.57735027 -0.57735027
vn 0.57735027 0.57735027 -0.57735027
vn -0.57735027 -0.57735027 0.57735027
vn 0.57735027 -0.57735027 0.57735027
vn -0.57735027 0.57735027 0.57735027
vn 0.57735027 0.57735027 0.57735027
f 3//3 2//2 1//1
f 2//2 3//3 4//4
f 5//5 3//3 1//1
f 3//3 5//5 7//7
f 2//2 5//5 1//1
f 5//5 2//2 6//6
f 7//7 6//6 8//8
f 6//6 7//7 5//5
f 4//4 7//7 8//8
f 7//7 4//4 3//3
f 6//6 4//4 8//8
f 4//4 6//6 2//2