# https://github.com/mikedh/trimesh
v 0.03635300 -0.01199000 0.04208700
v 0.03635300 -0.01199000 0.03623000
v 0.03829800 -0.00060000 -0.01942400
v 0.03829800 -0.00060000 0.03623000
v 0.03635300 -0.01199000 -0.01942400
v 0.03829800 -0.00060000 -0.02977100
v 0.03635300 -0.01199000 -0.02977100
v 0.04278100 -0.01308800 -0.02204700
v 0.04472700 -0.00169800 -0.02204700
v 0.04771500 -0.01393100 -0.02112400
v 0.04966000 -0.00254100 -0.02112400
v 0.05863900 -0.01579600 -0.01549000
v 0.06058400 -0.00440600 -0.01549000
v 0.06889100 -0.00582500 -0.00669300
v 0.06694600 -0.01721500 -0.00669300
v 0.07256200 -0.00645200 0.00402600
v 0.07061700 -0.01784200 0.00402600
v 0.07256200 -0.00645200 0.01579100
v 0.07061700 -0.01784200 0.01579100
v 0.06656400 -0.01715000 0.02814100
v 0.06851000 -0.00576000 0.02814100
v 0.06181000 -0.01633800 0.03525400
v 0.06375500 -0.00494800 0.03525400
v 0.05664300 -0.00373300 0.03927500
v 0.05469700 -0.01512300 0.03927500
v 0.04673200 -0.00204000 0.03931300
v 0.04478700 -0.01343100 0.03931300
v 0.03829800 -0.00060000 0.04208700
v 0.04702100 -0.01381200 0.04794500
v 0.04896600 -0.00242200 0.04794500
v 0.05434500 -0.01506300 0.04794500
v 0.05629000 -0.00367300 0.04794500
v 0.07656000 -0.01885700 0.03016300
v 0.08116600 -0.00792100 0.02056400
v 0.07850500 -0.00746700 0.03016300
v 0.07922100 -0.01931200 0.02056400
v 0.08116600 -0.00792100 0.01226200
v 0.07922100 -0.01931200 0.01226200
v 0.07727700 -0.01898000 -0.00127900
v 0.07922300 -0.00758900 -0.00127900
v 0.07389100 -0.01840100 -0.00970000
v 0.07583600 -0.00701100 -0.00970000
v 0.06903900 -0.01757300 -0.01669400
v 0.07098400 -0.00618200 -0.01669400
v 0.06245100 -0.00472500 -0.02235900
v 0.06050600 -0.01611500 -0.02235900
v 0.05046000 -0.00267700 -0.02710600
v 0.04851500 -0.01406700 -0.02710600
v 0.04467100 -0.00168900 -0.02837300
v 0.04272600 -0.01307900 -0.02837300
v 0.06463500 -0.01682100 0.04568900
v 0.06658100 -0.00543000 0.04568900
v 0.07355500 -0.00662100 0.03920800
v 0.07161000 -0.01801200 0.03920800
vn -0.41798333 -0.73629382 0.53212907
vn 0.15994499 -0.65115152 -0.74190248
vn 0.39491701 0.54464423 0.73986703
vn 0.36700264 0.56117567 -0.74188337
vn 0.51103219 -0.59801486 0.61743366
vn 0.55265101 0.50232674 -0.66501482
vn 0.58889361 -0.59311322 -0.54901823
vn -0.06846796 -0.77511799 0.62809572
vn 0.19269161 0.75382330 0.62818817
vn -0.33701944 -0.69417143 0.63603767
vn -0.08751869 0.76638110 0.63639648
vn -0.51646551 -0.66935618 0.53406524
vn -0.26503576 0.80290404 0.53394864
vn -0.42039345 0.84113088 0.34024725
vn -0.67572406 -0.65395599 0.34020371
vn -0.52104346 0.84631665 0.11073322
vn -0.77238317 -0.62543139 0.11072406
vn -0.52374300 0.84516371 -0.10673135
vn -0.77454623 -0.62344501 -0.10674484
vn -0.71970905 -0.62701159 -0.29811969
vn -0.47076966 0.83036736 -0.29810396
vn -0.55886582 -0.67861967 -0.47659662
vn -0.30196504 0.82558845 -0.47667687
vn -0.03067922 0.78418095 -0.61977336
vn -0.28917290 -0.72951252 -0.61983104
vn 0.23725796 0.71877580 -0.65350594
vn -0.01476374 -0.75677438 -0.65350942
vn -0.14990352 0.83329049 0.53212394
vn -0.29312264 -0.61520458 0.73184865
vn -0.07232175 0.67762146 0.73184610
vn -0.03876936 -0.68718292 0.72544922
vn 0.19150379 0.66103289 0.72550797
vn 0.55196238 -0.78600960 0.27843570
vn 0.83218067 0.54532180 0.10049615
vn 0.78153394 0.55828777 0.27842320
vn 0.60404954 -0.79058459 0.10049953
vn 0.82682592 0.56003058 -0.05219821
vn 0.59411368 -0.80268470 -0.05221306
vn 0.58192405 -0.79013024 -0.19250612
vn 0.81120450 0.55216563 -0.19251075
vn 0.51716982 -0.78078685 -0.35058133
vn 0.74697133 0.56491511 -0.35057773
vn 0.39804394 -0.74484198 -0.53551045
vn 0.62267823 0.57050296 -0.53553543
vn 0.44434685 0.61856564 -0.64802193
vn 0.21388867 -0.73091309 -0.64808772
vn 0.32175800 0.64464699 -0.69347101
vn 0.08960942 -0.71486826 -0.69349370
vn 0.26616626 0.67189313 -0.69116941
vn 0.02810115 -0.72224460 -0.69106661
vn 0.23306120 -0.70204234 0.67291829
vn 0.45287360 0.58485559 0.67294089
vn 0.68582268 0.56535874 0.45827583
vn 0.45933238 -0.76089811 0.45830976
f 6//6 5//5 7//7
f 3//3 8//8 9//9
f 8//8 3//3 5//5
f 9//9 10//10 11//11
f 10//10 9//9 8//8
f 11//11 12//12 13//13
f 12//12 11//11 10//10
f 12//12 14//14 13//13
f 14//14 12//12 15//15
f 15//15 16//16 14//14
f 16//16 15//15 17//17
f 17//17 18//18 16//16
f 18//18 17//17 19//19
f 18//18 20//20 21//21
f 20//20 18//18 19//19
f 21//21 22//22 23//23
f 22//22 21//21 20//20
f 22//22 24//24 23//23
f 24//24 22//22 25//25
f 25//25 26//26 24//24
f 26//26 25//25 27//27
f 27//27 4//4 26//26
f 4//4 27//27 2//2
f 28//28 29//29 30//30
f 29//29 28//28 1//1
f 30//30 31//31 32//32
f 31//31 30//30 29//29
f 33//33 34//34 35//35
f 34//34 33//33 36//36
f 36//36 37//37 34//34
f 37//37 36//36 38//38
f 37//37 39//39 40//40
f 39//39 37//37 38//38
f 40//40 41//41 42//42
f 41//41 40//40 39//39
f 42//42 43//43 44//44
f 43//43 42//42 41//41
f 43//43 45//45 44//44
f 45//45 43//43 46//46
f 46//46 47//47 45//45
f 47//47 46//46 48//48
f 48//48 49//49 47//47
f 49//49 48//48 50//50
f 50//50 6//6 49//49
f 6//6 50//50 7//7
f 32//32 51//51 52//52
f 51//51 32//32 31//31
f 52//52 30//30 32//32
f 52//52 28//28 30//30
f 52//52 26//26 28//28
f 52//52 24//24 26//26
f 53//53 24//24 52//52
f 53//53 23//23 24//24
f 35//35 23//23 53//53
f 35//35 21//21 23//23
f 34//34 21//21 35//35
f 34//34 18//18 21//21
f 37//37 18//18 34//34
f 37//37 16//16 18//18
f 40//40 16//16 37//37
f 40//40 14//14 16//16
f 42//42 14//14 40//40
f 42//42 13//13 14//14
f 44//44 13//13 42//42
f 44//44 11//11 13//13
f 11//11 45//45 9//9
f 45//45 11//11 44//44
f 28//28 26//26 4//4
f 47//47 9//9 45//45
f 47//47 3//3 9//9
f 49//49 3//3 47//47
f 3//3 49//49 6//6
f 54//54 35//35 53//53
f 35//35 54//54 33//33
f 8//8 48//48 46//46
f 5//5 48//48 8//8
f 5//5 50//50 48//48
f 50//50 5//5 7//7
f 1//1 2//2 27//27
f 29//29 51//51 31//31
f 1//1 51//51 29//29
f 27//27 51//51 1//1
f 25//25 51//51 27//27
f 25//25 54//54 51//51
f 22//22 54//54 25//25
f 22//22 33//33 54//54
f 20//20 33//33 22//22
f 20//20 36//36 33//33
f 19//19 36//36 20//20
f 19//19 38//38 36//36
f 17//17 38//38 19//19
f 17//17 39//39 38//38
f 15//15 39//39 17//17
f 15//15 41//41 39//39
f 12//12 41//41 15//15
f 12//12 43//43 41//41
f 10//10 43//43 12//12
f 10//10 46//46 43//43
f 46//46 10//10 8//8
f 52//52 54//54 53//53
f 54//54 52//52 51//51